<?xml version="1.0" encoding="UTF-8"?>
<svg id="Layer_1" data-name="Layer 1" xmlns="http://www.w3.org/2000/svg" viewBox="0 0 783.55 765.72">
  <defs>
    <style>
      .cls-1 {
        fill: none;
        stroke: #010101;
        stroke-linecap: round;
        stroke-linejoin: round;
        stroke-width: 36px;
      }
    </style>
  </defs>
  <circle class="cls-1" cx="391.77" cy="382.7" r="179.94"/>
  <path class="cls-1" d="M361.81,297.84c9.37-3.31,19.46-5.11,29.97-5.11,49.69,0,89.97,40.28,89.97,89.97s-40.28,89.97-89.97,89.97-89.97-40.28-89.97-89.97c0-8.84,1.28-17.38,3.65-25.46"/>
  <line class="cls-1" x1="392.6" y1="86.19" x2="392.6" y2="18"/>
  <line class="cls-1" x1="281.24" y1="122.72" x2="242.68" y2="76.8"/>
  <line class="cls-1" x1="503.14" y1="122.72" x2="541.7" y2="76.8"/>
  <line class="cls-1" x1="392.6" y1="679.54" x2="392.6" y2="747.72"/>
  <line class="cls-1" x1="281.24" y1="643.01" x2="242.68" y2="688.93"/>
  <line class="cls-1" x1="503.14" y1="643.01" x2="541.7" y2="688.93"/>
  <path class="cls-1" d="M391.77,202.76s-212.86-12.85-373.77,179.94v.33c160.91,192.79,373.77,179.94,373.77,179.94,0,0,212.86,12.85,373.77-179.94v-.33c-160.91-192.79-373.77-179.94-373.77-179.94Z"/>
</svg>