<?xml version="1.0" encoding="utf-8"?>
<!-- Generator: Adobe Illustrator 28.0.0, SVG Export Plug-In . SVG Version: 6.00 Build 0)  -->
<svg version="1.1" id="_x2014_ÎÓÈ_x5F_1" xmlns="http://www.w3.org/2000/svg" xmlns:xlink="http://www.w3.org/1999/xlink"
	 x="0px" y="0px" viewBox="0 0 100 100" style="enable-background:new 0 0 100 100;" xml:space="preserve">
<g>
	<path d="M24.1,100c-2.5,0-4.8-1-6.6-2.7c-1.8-1.8-2.7-4.1-2.7-6.6s1-4.8,2.7-6.6c1.8-1.8,4.1-2.7,6.6-2.7s4.8,1,6.6,2.7
		c1.8,1.8,2.7,4.1,2.7,6.6s-1,4.8-2.7,6.6C28.9,99,26.6,100,24.1,100z M24.1,83.7c-3.9,0-7,3.1-7,7s3.1,7,7,7s7-3.1,7-7
		S28,83.7,24.1,83.7z"/>
	<circle cx="24.1" cy="90.7" r="5.2"/>
	<path d="M55.8,1.1c-0.7,0.2-1.2,0.8-1.2,1.5v0.6v0.6c0,0.7,0.5,1.3,1.2,1.5l4,1c1,0.2,1.9-0.5,1.9-1.5V3.1V1.5c0-1-0.9-1.7-1.9-1.5
		L55.8,1.1z"/>
	<path d="M75.6,1.1c0.7,0.2,1.1,0.8,1.1,1.5v0.6v0.6c0,0.7-0.5,1.3-1.1,1.5l-4,1c-1,0.2-1.9-0.5-1.9-1.5V3.1V1.5
		c0-1,0.9-1.7,1.9-1.5L75.6,1.1z"/>
	<path d="M84.9,24.1h-4.2c-0.2,0-0.3,0.1-0.3,0.3c0,2-0.4,4-1.2,5.8c-0.8,1.8-1.8,3.4-3.2,4.8c-1.4,1.4-3,2.4-4.7,3.2
		c-1.8,0.8-3.8,1.2-5.8,1.2c-2,0-3.9-0.4-5.7-1.2c-1.8-0.8-3.3-1.8-4.7-3.2c-1.4-1.4-2.4-2.9-3.2-4.7c-0.8-1.8-1.2-3.8-1.2-5.8
		c0-0.2-0.2-0.4-0.4-0.4h-4c-0.2,0-0.4,0.2-0.4,0.4c0,2.6,0.5,5.2,1.5,7.6c1,2.3,2.4,4.4,4.2,6.2c1.8,1.8,3.9,3.2,6.2,4.2
		c1.4,0.6,2.8,1,4.2,1.2v4.4c0,1.9,1.5,3.4,3.4,3.4l0,0c1.9,0,3.4-1.5,3.4-3.4v-4.4c1.4-0.3,2.9-0.7,4.2-1.2c2.3-1,4.4-2.4,6.2-4.2
		c1.8-1.8,3.2-3.9,4.2-6.2h0c1-2.4,1.5-5,1.5-7.6v-0.1C85.2,24.2,85.1,24.1,84.9,24.1z"/>
	<path d="M78,4.7c2,0.4,3.4,2.1,3.4,4.2v13.5h2.9V8.9c0-3.6-2.7-6.6-6.2-7.1c0.1,0.2,0.1,0.5,0.1,0.7v1.1C78.2,4,78.1,4.4,78,4.7z"
		/>
	<path d="M49.7,22.4V8.9c0-2.2,1.6-3.9,3.7-4.2c-0.1-0.3-0.2-0.6-0.2-1V2.5c0-0.3,0-0.5,0.1-0.8c-3.6,0.4-6.5,3.4-6.5,7.1v13.5H49.7
		z"/>
	<g>
		<path d="M65.6,53c-0.5,0-1.1-0.1-1.5-0.3v20c0,4.9-4,8.9-8.9,8.9c-4.9,0-8.9-4-8.9-8.9V52.2c0-1.6-0.3-3.2-0.9-4.6
			c-0.6-1.4-1.5-2.7-2.6-3.8c-1.1-1.1-2.4-2-3.8-2.6c-1.5-0.6-3-0.9-4.6-0.9c-1.6,0-3.2,0.3-4.6,0.9c-1.4,0.6-2.7,1.5-3.8,2.6
			c-1.1,1.1-2,2.4-2.6,3.8c-0.6,1.5-0.9,3-0.9,4.6v27.7c0.6-0.1,1.2-0.2,1.8-0.2c0.4,0,0.8,0,1.2,0.1V52.2c0-4.9,4-8.9,8.9-8.9
			s8.9,4,8.9,8.9v20.5c0,1.6,0.3,3.2,0.9,4.6c0.6,1.4,1.5,2.7,2.6,3.8c1.1,1.1,2.4,2,3.8,2.6c1.5,0.6,3,0.9,4.6,0.9
			c1.6,0,3.2-0.3,4.6-0.9c1.4-0.6,2.7-1.5,3.8-2.6c1.1-1.1,2-2.4,2.6-3.8c0.6-1.4,0.9-3,0.9-4.5l0-20.1C66.6,52.9,66.1,53,65.6,53z"
			/>
	</g>
</g>
</svg>
