<?xml version="1.0" encoding="utf-8"?>
<!-- Generator: Adobe Illustrator 28.0.0, SVG Export Plug-In . SVG Version: 6.00 Build 0)  -->
<svg version="1.1" id="Layer_1" xmlns="http://www.w3.org/2000/svg" xmlns:xlink="http://www.w3.org/1999/xlink" x="0px" y="0px"
	 viewBox="0 0 100 100" style="enable-background:new 0 0 100 100;" xml:space="preserve">
<style type="text/css">
	.st0{fill:none;stroke:#231F20;stroke-width:4.712;stroke-linecap:round;stroke-linejoin:round;stroke-miterlimit:10;}
	.st1{fill:#231F20;}
	.st2{fill:none;stroke:#231F20;stroke-width:3.2984;stroke-linecap:round;stroke-linejoin:round;stroke-miterlimit:10;}
</style>
<g>
	<g>
		<path class="st0" d="M74.9,84.7v10.8c0,2.5-2,4.5-4.5,4.5H8.5C6,100,4,98,4,95.5v-76c0-2.5,2-4.5,4.5-4.5h14.3v6.8H56v-6.8h14.3
			c2.5,0,4.5,2,4.5,4.5v33.6"/>
		<path class="st0" d="M48.5,9.1c0-5-4.1-9.1-9.1-9.1c-5,0-9.1,4.1-9.1,9.1h-7.5v12.6H56V9.1H48.5z"/>
		<path class="st1" d="M43.2,9.1c0-2.1-1.7-3.8-3.8-3.8c-2.1,0-3.8,1.7-3.8,3.8c0,2.1,1.7,3.8,3.8,3.8C41.5,12.9,43.2,11.2,43.2,9.1
			z"/>
		<g>
			<polygon class="st2" points="36.9,45.8 30.6,45.8 30.6,39.5 21.9,39.5 21.9,45.8 15.6,45.8 15.6,54.5 21.9,54.5 21.9,60.9 
				30.6,60.9 30.6,54.5 36.9,54.5 			"/>
			<line class="st2" x1="46.3" y1="39.5" x2="63.9" y2="39.5"/>
			<line class="st2" x1="15.6" y1="82.2" x2="50.8" y2="82.2"/>
		</g>
	</g>
	<path class="st0" d="M85.8,67.6c1-4.5-0.1-8.9-4.8-12.5c-7.9-6-16.9,3.3-16.9,3.3s-9.1-9.3-16.9-3.3C29.1,68.7,64,94.2,64,94.2l0,0
		c0,0,10.9-7.9,17.4-17.3"/>
	<polyline class="st2" points="96,76 73.8,76 71.2,69.2 65.3,81.1 61.5,71.1 57.7,76 53.7,76 	"/>
</g>
</svg>
