 <svg version="1.0" xmlns="http://www.w3.org/2000/svg" width="700.000000pt" height="128.000000pt" viewBox="0 0 700.000000 128.000000" preserveAspectRatio="xMidYMid meet">
<metadata>
Created by potrace 1.12, written by Peter Selinger 2001-2015
</metadata>
<g transform="translate(0.000000,128.000000) scale(0.100000,-0.100000)" fill="#000000" stroke="none">
<path d="M2440 1103 c0 -11 6 -14 23 -9 12 3 31 6 41 6 32 0 9 12 -29 16 -26
2 -35 -1 -35 -13z"></path>
<path d="M2550 1110 c0 -5 5 -10 10 -10 6 0 10 5 10 10 0 6 -4 10 -10 10 -5 0
-10 -4 -10 -10z"></path>
<path d="M3448 1114 c-2 -1 -109 -5 -238 -9 -260 -7 -333 -11 -340 -15 -3 -1
-68 -4 -145 -6 -77 -2 -148 -4 -157 -5 -10 0 -20 -4 -22 -8 -3 -4 -29 -6 -58
-4 -121 5 -136 5 -149 -3 -18 -11 -122 -17 -247 -15 -59 2 -109 -2 -115 -8 -7
-5 -37 -8 -67 -6 -29 2 -58 1 -64 -3 -12 -8 -69 -13 -130 -12 -21 0 -44 -5
-52 -11 -11 -9 -14 -9 -14 1 0 8 -10 9 -32 4 -18 -4 -44 -8 -58 -9 -14 -2 -25
-3 -25 -4 0 -2 -29 -4 -65 -7 -36 -2 -90 -8 -120 -14 -49 -8 -108 -16 -195
-26 -16 -2 -48 -6 -70 -10 -22 -3 -87 -12 -144 -20 -58 -8 -110 -19 -117 -25
-7 -6 -17 -8 -21 -6 -5 3 -29 2 -53 -3 -25 -5 -83 -16 -130 -25 -120 -22 -130
-24 -129 -33 4 -21 -5 -30 -41 -42 -40 -13 -54 -30 -25 -30 9 0 44 6 78 14 79
18 200 38 252 41 22 2 75 10 118 19 43 10 86 16 95 15 9 -1 24 1 33 5 9 4 56
8 105 10 49 1 97 6 106 10 9 4 21 5 26 2 5 -3 24 1 41 10 17 8 36 12 43 8 14
-9 97 -6 112 4 6 3 45 8 86 9 41 2 91 5 110 7 114 13 257 26 340 31 52 3 109
8 125 10 45 6 285 24 405 30 270 13 383 17 616 20 138 3 258 7 267 11 19 7 50
-13 41 -28 -3 -5 -15 -6 -26 -2 -13 4 -24 1 -29 -7 -7 -11 -12 -11 -27 -2 -13
7 -45 9 -93 6 -41 -3 -135 -8 -209 -10 -241 -6 -393 -12 -525 -19 -71 -4 -157
-8 -191 -9 -33 -1 -65 -4 -70 -7 -14 -9 -58 -13 -69 -6 -5 3 -43 0 -83 -7 -41
-7 -94 -10 -119 -7 -24 2 -54 0 -66 -6 -22 -10 -109 -21 -222 -28 -80 -4 -145
-11 -235 -23 -41 -6 -124 -14 -185 -17 -60 -3 -127 -12 -149 -19 -21 -7 -53
-11 -72 -8 -20 3 -40 1 -49 -7 -9 -7 -18 -10 -22 -7 -3 4 -11 3 -17 -2 -10 -7
-145 -29 -186 -30 -30 0 -106 -13 -125 -21 -25 -10 -143 -30 -178 -30 -14 0
-38 -5 -54 -12 -34 -14 -44 -16 -113 -23 -30 -3 -74 -13 -98 -21 -23 -7 -52
-14 -63 -14 -32 0 -91 -28 -84 -40 4 -6 15 -8 26 -5 30 10 219 12 219 3 0 -5
-8 -11 -17 -14 -10 -3 -31 -12 -48 -20 -16 -8 -43 -18 -60 -22 -18 -5 -30 -15
-30 -25 0 -9 -9 -23 -20 -31 -30 -22 -7 -38 64 -43 46 -4 61 -2 61 8 0 8 5 6
13 -5 11 -15 18 -16 33 -8 11 6 63 13 115 16 52 3 108 8 124 10 17 2 75 8 131
14 55 6 122 16 150 21 27 6 101 15 164 21 63 6 142 17 175 25 33 7 101 16 151
20 50 3 136 13 190 21 92 14 227 27 384 39 36 3 74 7 85 10 69 15 741 60 1120
75 207 8 1061 4 1160 -5 22 -2 108 -7 190 -10 83 -4 215 -13 295 -21 80 -7
188 -16 240 -18 92 -5 291 -29 495 -61 55 -8 117 -15 138 -15 22 0 51 -6 65
-14 15 -8 74 -19 132 -25 58 -6 141 -18 185 -26 44 -8 121 -20 170 -26 50 -6
106 -17 126 -24 20 -8 50 -13 66 -13 32 1 151 -19 197 -33 64 -20 73 -3 26 51
-16 19 -29 39 -30 44 0 5 -7 18 -17 28 -22 24 -13 30 26 17 18 -6 34 -9 38 -6
11 11 -9 26 -42 33 -20 3 -38 10 -41 15 -3 5 -25 9 -50 9 -41 0 -44 2 -44 26
0 26 1 27 48 19 26 -3 64 -8 85 -10 57 -4 46 21 -17 39 -30 9 -58 21 -61 26
-8 12 11 13 52 1 18 -5 35 -6 38 -2 5 10 -22 35 -48 45 -11 3 -21 15 -24 26
-4 14 -14 20 -32 20 -15 0 -54 7 -86 16 -54 15 -93 22 -270 53 -27 5 -68 14
-90 20 -22 6 -89 18 -150 27 -60 8 -137 20 -170 25 -168 29 -620 86 -781 99
-69 5 -129 12 -133 14 -3 2 -78 7 -166 11 -88 3 -221 11 -295 16 -74 5 -279
12 -455 14 -176 3 -341 7 -367 9 -26 2 -49 2 -50 0z m32 -124 c0 -5 -2 -10 -4
-10 -3 0 -8 5 -11 10 -3 6 -1 10 4 10 6 0 11 -4 11 -10z m75 0 c3 -5 2 -10 -4
-10 -5 0 -13 5 -16 10 -3 6 -2 10 4 10 5 0 13 -4 16 -10z m205 -10 c0 -5 -2
-10 -4 -10 -3 0 -8 5 -11 10 -3 6 -1 10 4 10 6 0 11 -4 11 -10z m190 -10 c0
-5 -7 -10 -15 -10 -8 0 -15 5 -15 10 0 6 7 10 15 10 8 0 15 -4 15 -10z m230
-11 c0 -6 -4 -7 -10 -4 -5 3 -10 11 -10 16 0 6 5 7 10 4 6 -3 10 -11 10 -16z
m85 1 c4 -6 -5 -10 -19 -10 -14 0 -26 5 -26 10 0 6 9 10 19 10 11 0 23 -4 26
-10z m275 -20 c0 -5 -4 -10 -10 -10 -5 0 -10 5 -10 10 0 6 5 10 10 10 6 0 10
-4 10 -10z m115 0 c4 -6 -8 -10 -29 -10 -20 0 -36 5 -36 10 0 6 13 10 29 10
17 0 33 -4 36 -10z m65 -21 c0 -11 -11 -11 -29 0 -7 5 -10 14 -6 20 5 9 10 9
21 0 8 -6 14 -15 14 -20z m95 11 c3 -5 -3 -10 -15 -10 -12 0 -18 5 -15 10 3 6
10 10 15 10 5 0 12 -4 15 -10z m-3486 -4 c-12 -10 -79 -16 -79 -6 0 5 19 10
42 10 23 0 39 -2 37 -4z m-112 -12 c-3 -3 -12 -4 -19 -1 -8 3 -5 6 6 6 11 1
17 -2 13 -5z m-160 -20 c-3 -3 -12 -4 -19 -1 -8 3 -5 6 6 6 11 1 17 -2 13 -5z
m-157 -23 c0 -5 -33 -12 -72 -16 -40 -4 -93 -13 -118 -20 -57 -17 -130 -26
-130 -15 0 17 79 32 240 46 30 3 56 7 59 9 8 8 21 5 21 -4z m-340 -50 c0 -12
-39 -25 -48 -16 -7 7 17 25 36 25 6 0 12 -4 12 -9z m-180 -191 c0 -5 -4 -10
-10 -10 -5 0 -10 5 -10 10 0 6 5 10 10 10 6 0 10 -4 10 -10z m6090 -46 c0 -2
-9 -4 -20 -4 -11 0 -20 4 -20 9 0 5 9 7 20 4 11 -3 20 -7 20 -9z"></path>
<path d="M2226 1101 c-4 -5 -2 -12 3 -15 5 -4 12 -2 15 3 4 5 2 12 -3 15 -5 4
-12 2 -15 -3z"></path>
<path d="M2330 1100 c0 -5 7 -10 15 -10 8 0 15 5 15 10 0 6 -7 10 -15 10 -8 0
-15 -4 -15 -10z"></path>
<path d="M383 813 c-28 -5 -30 -23 -4 -23 26 0 51 10 51 21 0 9 -8 10 -47 2z"></path>
<path d="M303 756 c-62 -13 -79 -26 -35 -26 38 0 112 22 112 32 0 10 -11 9
-77 -6z"></path>
<path d="M6600 711 c0 -11 29 -23 41 -16 5 3 18 1 29 -5 16 -8 20 -8 20 4 0 7
-7 17 -16 20 -24 9 -74 7 -74 -3z"></path>
<path d="M87 533 c-13 -12 -7 -23 13 -23 11 0 20 7 20 15 0 15 -21 21 -33 8z"></path>
</g>
</svg>