 <svg version="1.0" xmlns="http://www.w3.org/2000/svg" width="700.000000pt" height="99.000000pt" viewBox="0 0 700.000000 99.000000" preserveAspectRatio="xMidYMid meet">
<metadata>
Created by potrace 1.12, written by Peter Selinger 2001-2015
</metadata>
<g transform="translate(0.000000,99.000000) scale(0.100000,-0.100000)" fill="#000000" stroke="none">
<path d="M4065 750 c-236 -4 -603 -14 -815 -21 -365 -13 -618 -17 -685 -11
-71 7 -755 -30 -1180 -63 -716 -56 -1067 -89 -1086 -101 -5 -3 -6 -17 -3 -31
6 -23 5 -25 -15 -20 -29 7 -51 -1 -51 -19 0 -10 13 -14 44 -14 25 0 48 -4 51
-10 6 -10 -29 -21 -60 -17 -11 1 -20 -4 -21 -13 0 -8 -2 -17 -3 -20 -1 -3 -4
-24 -6 -47 -3 -34 0 -43 12 -43 15 0 42 27 43 43 0 4 -9 7 -20 7 -11 0 -20 5
-20 10 0 14 29 12 65 -5 27 -12 28 -13 8 -14 -24 -1 -29 -16 -14 -40 8 -12 45
-13 233 -6 122 5 239 8 258 7 19 -2 58 3 87 9 51 12 95 6 77 -10 -18 -17 -564
-39 -679 -28 -11 1 -21 -2 -23 -8 -8 -29 301 -24 688 10 200 18 377 28 447 26
29 -1 69 3 90 8 40 11 243 26 331 24 42 -1 56 -6 71 -25 17 -20 17 -24 5 -31
-9 -5 -21 -4 -30 3 -11 10 -17 10 -30 -1 -9 -7 -40 -12 -80 -12 -38 1 -64 -3
-64 -9 0 -7 -18 -8 -50 -4 -41 6 -50 4 -50 -9 0 -8 -4 -15 -10 -15 -5 0 -10 6
-10 13 0 8 -6 14 -12 14 -7 0 -21 4 -32 8 -15 7 -17 5 -11 -14 8 -25 -17 -40
-39 -22 -10 8 -21 7 -42 -3 -27 -13 -108 -25 -214 -31 -63 -4 -145 -11 -365
-30 -212 -18 -255 -22 -302 -24 -18 0 -33 -5 -33 -11 0 -13 244 -13 410 0 69
6 175 12 235 15 310 13 391 18 398 22 9 5 83 12 152 14 22 1 52 -2 67 -5 14
-4 35 -3 46 3 12 6 31 7 53 1 20 -5 95 -5 184 0 83 5 193 11 245 13 52 2 104
8 115 14 11 6 126 13 260 17 249 7 298 9 650 26 303 15 370 19 460 26 99 8
155 10 425 13 118 1 279 5 357 8 l141 6 5 26 c7 35 -1 40 -22 13 -17 -23 -17
-23 -286 -22 -149 0 -365 -2 -481 -6 l-211 -6 -7 27 c-5 19 -2 33 9 45 14 15
33 17 178 13 245 -7 245 -7 253 -15 12 -12 24 -9 22 4 -2 10 30 13 132 14 142
2 160 -1 156 -19 -1 -7 -1 -9 1 -4 3 4 11 7 19 7 8 0 14 3 14 8 0 11 69 13 91
2 14 -8 19 -7 19 1 0 7 11 9 34 5 23 -4 35 -3 38 5 3 8 9 9 17 4 19 -11 84
-14 97 -4 6 5 22 9 35 9 13 0 31 0 39 0 142 3 595 -13 600 -21 5 -6 21 -7 49
0 72 16 554 3 894 -24 199 -16 241 -15 219 7 -6 6 -51 12 -99 14 -48 1 -110 4
-138 7 -27 3 -93 8 -145 12 -52 4 -108 9 -125 10 -16 2 -39 4 -50 5 l-20 1 20
8 c25 10 442 3 515 -8 30 -5 59 -5 64 -1 17 16 -6 30 -49 30 -24 0 -47 4 -50
10 -4 6 11 10 38 10 51 0 70 17 70 60 0 17 7 32 16 35 13 5 12 10 -9 25 -14
11 -33 20 -42 20 -9 0 -20 4 -23 10 -3 5 2 10 12 10 15 0 13 4 -9 26 -30 30
-59 34 -428 60 -271 18 -1455 26 -2115 14z m2585 -170 c0 -5 -4 -10 -9 -10 -6
0 -13 5 -16 10 -3 6 1 10 9 10 9 0 16 -4 16 -10z m-3167 -175 c17 -5 33 -3 42
5 12 10 21 10 45 0 24 -10 37 -10 56 -1 29 13 74 15 74 3 0 -4 -6 -14 -12 -20
-10 -10 -10 -17 0 -33 8 -12 12 -22 10 -24 -2 -2 -59 -5 -127 -7 -93 -2 -125
0 -128 10 -3 6 3 12 13 12 17 0 17 1 2 17 -14 13 -20 14 -32 3 -9 -7 -16 -18
-16 -25 0 -22 -108 -30 -139 -11 -7 5 -18 3 -24 -3 -6 -6 -31 -11 -55 -11 -35
0 -43 3 -38 15 4 11 -1 15 -19 15 -13 0 -26 -4 -29 -8 -5 -9 -83 -7 -139 3
-33 7 -37 5 -37 -14 0 -22 0 -22 -30 -4 -29 17 -41 43 -19 43 5 0 7 5 4 10 -8
13 -36 13 -55 0 -13 -9 -13 -12 3 -24 9 -7 17 -18 17 -25 0 -14 -2 -14 -36 4
-20 10 -32 11 -41 3 -7 -5 -23 -8 -35 -5 -13 3 -32 -1 -42 -9 -11 -8 -35 -14
-53 -14 -32 0 -40 11 -34 44 1 5 -4 13 -11 17 -7 4 -9 11 -4 16 4 4 12 0 17
-10 6 -9 18 -17 29 -17 10 0 20 -6 23 -12 3 -10 10 -10 31 2 22 11 31 12 46 2
16 -10 23 -8 43 12 13 12 21 28 19 35 -5 16 80 5 118 -14 21 -11 26 -10 37 4
11 15 12 14 13 -3 0 -15 5 -17 38 -12 20 3 49 6 65 6 15 0 37 6 50 13 12 8 46
15 74 16 47 2 52 0 47 -16 -5 -17 -5 -17 10 1 11 14 24 17 48 14 18 -3 44 -2
57 1 29 8 87 6 124 -4z m-813 -15 c0 -5 -10 -10 -22 -9 -22 0 -22 1 -3 9 11 5
21 9 23 9 1 1 2 -3 2 -9z m55 0 c-3 -5 -15 -10 -26 -10 -10 0 -19 5 -19 10 0
6 12 10 26 10 14 0 23 -4 19 -10z m-412 -10 c7 0 3 -7 -7 -15 -20 -15 -20 -15
1 -15 11 0 28 -9 38 -20 18 -19 17 -20 -1 -20 -32 0 -69 22 -81 46 -11 25 -1
36 25 28 8 -2 19 -4 25 -4z m97 0 c0 -5 -9 -10 -20 -10 -11 0 -20 5 -20 10 0
6 9 10 20 10 11 0 20 -4 20 -10z m125 -38 c-6 -30 -7 -31 -66 -28 -40 1 -64 7
-76 19 -16 16 -16 17 14 17 18 0 35 5 38 10 4 7 12 7 25 0 28 -15 53 -13 47 4
-7 18 4 29 16 17 5 -5 6 -23 2 -39z m-486 18 c9 0 21 -13 27 -28 11 -28 11
-28 -25 -23 -27 5 -37 12 -39 28 -2 15 -8 20 -18 16 -9 -3 -12 -13 -9 -24 5
-15 1 -19 -19 -19 -26 0 -38 19 -13 21 6 1 -1 5 -18 9 l-30 7 35 11 c19 6 48
9 64 6 16 -2 36 -4 45 -4z m76 0 c-3 -5 -10 -10 -16 -10 -5 0 -9 5 -9 10 0 6
7 10 16 10 8 0 12 -4 9 -10z m5 -30 c0 -5 -2 -10 -4 -10 -3 0 -8 5 -11 10 -3
6 -1 10 4 10 6 0 11 -4 11 -10z m100 0 c0 -5 -4 -10 -9 -10 -6 0 -13 5 -16 10
-3 6 1 10 9 10 9 0 16 -4 16 -10z m35 -10 c3 -5 -1 -10 -9 -10 -9 0 -16 5 -16
10 0 6 4 10 9 10 6 0 13 -4 16 -10z"></path>
<path d="M3597 383 c-4 -3 -7 -11 -7 -17 0 -6 5 -5 12 2 6 6 9 14 7 17 -3 3
-9 2 -12 -2z"></path>
<path d="M3533 372 c-29 -4 -29 -18 -1 -25 25 -7 31 -4 26 15 -2 7 -13 12 -25
10z"></path>
<path d="M3205 359 c-10 -15 3 -25 16 -12 7 7 7 13 1 17 -6 3 -14 1 -17 -5z"></path>
<path d="M5070 400 c0 -5 5 -10 10 -10 6 0 10 5 10 10 0 6 -4 10 -10 10 -5 0
-10 -4 -10 -10z"></path>
<path d="M4272 389 c2 -7 10 -15 17 -17 8 -3 12 1 9 9 -2 7 -10 15 -17 17 -8
3 -12 -1 -9 -9z"></path>
<path d="M4380 390 c0 -5 5 -10 10 -10 6 0 10 5 10 10 0 6 -4 10 -10 10 -5 0
-10 -4 -10 -10z"></path>
<path d="M3800 370 c0 -5 5 -10 11 -10 5 0 7 5 4 10 -3 6 -8 10 -11 10 -2 0
-4 -4 -4 -10z"></path>
<path d="M4070 360 c0 -5 5 -10 10 -10 6 0 10 5 10 10 0 6 -4 10 -10 10 -5 0
-10 -4 -10 -10z"></path>
<path d="M4970 360 c0 -5 5 -10 10 -10 6 0 10 5 10 10 0 6 -4 10 -10 10 -5 0
-10 -4 -10 -10z"></path>
<path d="M5400 349 c0 -5 5 -7 10 -4 6 3 10 8 10 11 0 2 -4 4 -10 4 -5 0 -10
-5 -10 -11z"></path>
<path d="M1790 330 c0 -5 5 -10 10 -10 6 0 10 5 10 10 0 6 -4 10 -10 10 -5 0
-10 -4 -10 -10z"></path>
<path d="M4750 330 c0 -5 18 -10 40 -10 22 0 40 5 40 10 0 6 -18 10 -40 10
-22 0 -40 -4 -40 -10z"></path>
<path d="M1695 320 c-3 -5 -1 -10 4 -10 6 0 11 5 11 10 0 6 -2 10 -4 10 -3 0
-8 -4 -11 -10z"></path>
<path d="M1283 267 c2 -8 28 -12 70 -12 88 0 82 19 -7 22 -48 1 -66 -2 -63
-10z"></path>
<path d="M1135 259 c-12 -19 5 -23 22 -6 16 16 16 17 1 17 -9 0 -20 -5 -23
-11z"></path>
<path d="M1195 261 c-7 -13 -7 -13 28 -15 15 -1 26 3 24 9 -5 14 -44 19 -52 6z"></path>
<path d="M1045 250 c3 -5 10 -10 16 -10 5 0 9 5 9 10 0 6 -7 10 -16 10 -8 0
-12 -4 -9 -10z"></path>
<path d="M390 230 c0 -6 28 -10 65 -10 37 0 65 4 65 10 0 6 -28 10 -65 10 -37
0 -65 -4 -65 -10z"></path>
</g>
</svg>