<?xml version="1.0" encoding="UTF-8" standalone="no"?>
<!-- Created with Inkscape (http://www.inkscape.org/) -->

<svg
   version="1.1"
   id="svg2"
   width="566.38666"
   height="583.58667"
   viewBox="0 0 566.38666 583.58667"
   sodipodi:docname="shutterstock_1189157305.eps"
   xmlns:inkscape="http://www.inkscape.org/namespaces/inkscape"
   xmlns:sodipodi="http://sodipodi.sourceforge.net/DTD/sodipodi-0.dtd"
   xmlns="http://www.w3.org/2000/svg"
   xmlns:svg="http://www.w3.org/2000/svg">
  <defs
     id="defs6" />
  <sodipodi:namedview
     id="namedview4"
     pagecolor="#ffffff"
     bordercolor="#000000"
     borderopacity="0.25"
     inkscape:showpageshadow="2"
     inkscape:pageopacity="0.0"
     inkscape:pagecheckerboard="0"
     inkscape:deskcolor="#d1d1d1" />
  <g
     id="g8"
     inkscape:groupmode="layer"
     inkscape:label="ink_ext_XXXXXX"
     transform="matrix(1.3333333,0,0,-1.3333333,0,583.58667)">
    <g
       id="g10"
       transform="scale(0.1)">
      <path
         d="m 3337.39,1029.39 -675.08,254.19 c 0,0 -198.41,87.9 -415.41,-78.53 l -168.11,-140.73 c 0,0 -58.93,22.52 -137.15,58.31 v 0 c 0,0 -749.58,588.92 -919.37,1102.26 -5.33,17.47 -10.15,33.88 -14.44,48.84 v 0 0 c -14.744,51.6 -22.994,85.9 -22.994,85.9 l 165.684,143.59 c 198.82,187.77 143.59,397.63 143.59,397.63 l -143.59,706.92 c -309.27,574.36 -972,-121.5 -972,-121.5 C -47.125,3100.62 -31.9688,2707.37 76.1875,2365.35 79.8359,2345.23 276.789,1288.68 1570.12,404.699 1938.65,113.801 2469.54,-140.82 3062.85,89.0898 c 0,0 792.41,543.6212 274.54,940.3002"
         style="fill:#100f0d;fill-opacity:1;fill-rule:nonzero;stroke:none"
         id="path12" />
      <path
         d="m 2741.53,1799.27 c -5.75,0 -11.54,0.3 -17.39,0.91 -91.01,9.49 -157.1,90.96 -147.61,181.97 38.27,367.11 -229.26,696.92 -596.36,735.2 -91.02,9.49 -157.1,90.96 -147.61,181.98 9.49,91 90.97,157.05 181.97,147.6 548.85,-57.23 948.8,-550.3 891.58,-1099.15 -8.88,-85.16 -80.8,-148.51 -164.58,-148.51"
         style="fill:#100f0d;fill-opacity:1;fill-rule:nonzero;stroke:none"
         id="path14" />
      <path
         d="m 3400.58,1730.54 c -5.74,0 -11.54,0.31 -17.38,0.91 -91.01,9.49 -157.1,90.96 -147.61,181.97 36.91,353.88 -66.22,700.96 -290.35,977.27 -224.13,276.33 -542.47,448.83 -896.36,485.73 -91.01,9.49 -157.09,90.96 -147.6,181.97 9.49,91.01 90.94,157.02 181.97,147.6 441.92,-46.08 839.43,-261.48 1119.34,-606.55 279.89,-345.06 408.66,-778.47 362.57,-1220.39 -8.87,-85.16 -80.8,-148.51 -164.58,-148.51"
         style="fill:#100f0d;fill-opacity:1;fill-rule:nonzero;stroke:none"
         id="path16" />
      <path
         d="m 4070.61,1660.69 c -5.74,0 -11.54,0.29 -17.38,0.9 -91.01,9.49 -157.1,90.96 -147.61,181.97 114.7,1099.98 -686.88,2088.19 -1786.85,2202.89 -91.01,9.49 -157.1,90.96 -147.61,181.97 9.49,91.01 90.94,157.03 181.97,147.61 1281.7,-133.65 2215.72,-1285.13 2082.07,-2566.84 -8.88,-85.16 -80.81,-148.5 -164.59,-148.5"
         style="fill:#100f0d;fill-opacity:1;fill-rule:nonzero;stroke:none"
         id="path18" />
    </g>
  </g>
</svg>
