<?xml version="1.0" encoding="utf-8"?>
<!-- Generator: Adobe Illustrator 28.0.0, SVG Export Plug-In . SVG Version: 6.00 Build 0)  -->
<svg version="1.1" id="Layer_1" xmlns="http://www.w3.org/2000/svg" xmlns:xlink="http://www.w3.org/1999/xlink" x="0px" y="0px"
	 viewBox="0 0 100 100" style="enable-background:new 0 0 100 100;" xml:space="preserve">
<g>
	<path d="M26,51.8H15.7c-1.2,0-2.2-1-2.2-2.2v-6.7c0-1.2,1-2.2,2.2-2.2H26c1.2,0,2.2,1,2.2,2.2v6.7C28.2,50.8,27.2,51.8,26,51.8z"/>
	<path d="M47.5,51.8H37.3c-1.2,0-2.2-1-2.2-2.2v-6.7c0-1.2,1-2.2,2.2-2.2h10.2c1.2,0,2.2,1,2.2,2.2v6.7
		C49.8,50.8,48.8,51.8,47.5,51.8z"/>
	<path d="M71.3,42.8v4.7c-1.2,0.2-2.3,0.4-3.5,0.7c-2.8,0.8-5.5,1.9-7.9,3.5h-1c-1.2,0-2.2-1-2.2-2.2v-6.7c0-1.2,1-2.2,2.2-2.2h10.2
		C70.3,40.6,71.3,41.6,71.3,42.8z"/>
	<path d="M26,71.1H15.7c-1.2,0-2.2-1-2.2-2.2v-6.7c0-1.2,1-2.2,2.2-2.2H26c1.2,0,2.2,1,2.2,2.2v6.7C28.2,70.1,27.2,71.1,26,71.1z"/>
	<path d="M49.8,62.1v1.7c-1,2.3-1.7,4.8-2,7.3c-0.1,0-0.1,0-0.2,0H37.3c-1.2,0-2.2-1-2.2-2.2v-6.7c0-1.2,1-2.2,2.2-2.2h10.2
		C48.8,59.9,49.8,60.9,49.8,62.1z"/>
	<g>
		<g>
			<path d="M59,13.4c0,0.2,0,0.3,0,0.5c0,0.9,0.4,1.7,1.2,2.3c1,0.8,2.2,0.9,3.3,0.4c1.4-0.6,1.9-1.8,1.9-3.2c0-3.1,0-6.1,0-9.2
				c0-0.5-0.1-1-0.3-1.5c-0.5-1.4-2-2.2-3.3-2.1c-1.6,0.2-2.8,1.4-2.8,3c0,1.2,0,2.3,0,3.5c-8.4,0-27.4,0.1-27.8,0.1
				c0,0.4,0,0.7,0,1c0,1.7,0,3.4,0,5.2C39.4,13.4,50.5,13.4,59,13.4z"/>
			<path d="M84.9,49c0-10.6,0-21.2,0-31.7c0-0.2,0-0.5,0-0.7C84.6,12,81.4,8.2,77,7.4c-1.4-0.3-2.9-0.2-4.4-0.2c-1.3,0-1,0-2.4,0v1
				c0,1.7,0,3.4,0,5.1c0,0,0,0.1,0,0.1h4.3c2.5,0,3.8,1.3,3.8,3.8v6.3H6.5v-6.3c0-2.5,1.3-3.8,3.8-3.8h9.2c0,0.4,0.1,0.9,0.2,1.3
				c0.5,1.5,1.9,2.3,3.5,2.1c1.4-0.2,2.6-1.4,2.7-2.9c0.1-1.7,0-3.5,0-5.2c0-1.7,0-3.4,0-5.1c0-1.4-1-2.4-2.3-2.8
				c-2.2-0.6-4.1,1-4.1,3.4c0,1,0,2,0,3c-1.4,0-5.4,0-6.4,0c-1.6,0-3.3-0.1-4.9,0.2C3.2,8.2,0,12.2,0,17.3C0,36.6,0,56,0,75.4
				c0,5.8,4.3,10.1,10.1,10.1c13.2,0,26.3,0,39.5,0c-0.8-1.8-1.3-3.7-1.6-5.7c0-0.3-0.1-0.5-0.1-0.8c-12.5,0-25,0-37.5,0
				c-2.5,0-3.8-1.3-3.8-3.8c0-9.7,0-19.3,0-29c0-5.8,0-11.6,0-17.4h71.9c0,5.8,0,11.6,0,17.4v1.2C80.6,47.6,82.8,48.2,84.9,49z"/>
		</g>
	</g>
	<path d="M97.6,66.8l-0.5,0.6c-1,1.2-2,2.3-3.1,3.5c0,0,0,0,0,0c0.3,1.4,0.5,2.8,0.5,4.3c0,10.8-8.8,19.5-19.5,19.5
		c-10.8,0-19.5-8.8-19.5-19.5c0-10.8,8.8-19.5,19.5-19.5c3.9,0,7.5,1.1,10.6,3.1c1.3-1,2.6-1.9,4-2.9C85.5,52.8,80.4,51,75,51
		c-13.3,0-24.2,10.8-24.2,24.2S61.6,99.4,75,99.4s24.2-10.8,24.2-24.2C99.1,72.2,98.6,69.4,97.6,66.8z"/>
	<path d="M100,56.4c0-0.6-0.5-0.9-1.5-0.9c-0.1,0-0.2,0-0.2,0c-0.4,0-0.7,0.2-0.9,0.3l-0.3,0.2c-0.3,0.1-0.5,0.3-0.8,0.4
		c-0.7,0.3-1.4,0.8-2.2,1.3c-5.1,3.4-10,7.3-14.8,11l-0.3,0.2c-1.1,0.9-2.3,1.8-3.4,2.7c-0.3,0.3-0.6,0.5-1,0.8
		c-0.5-0.4-1-0.8-1.5-1.3c-1.5-1.2-3-2.5-4.5-3.7c-0.9-0.7-2-1.2-2.9-1.6c-0.8-0.3-1.6-0.2-2.1,0.4c-0.3,0.4-0.5,1-0.3,1.7
		c0.1,0.6,0.3,1.2,0.5,1.9c1.5,3.6,3.6,7.3,6.5,11.5c0.9,1.3,2.4,2.1,3.9,2.1c1.3,0,2.5-0.5,3.5-1.5c0.9-0.9,1.9-1.9,2.8-2.9
		c3.5-3.6,6.9-7.2,10.2-10.9c1.8-2,3.5-4,5.3-6C96.8,61.6,100.1,58.1,100,56.4z"/>
</g>
</svg>
