<svg version="1.1" id="Layer_1" xmlns="http://www.w3.org/2000/svg" xmlns:xlink="http://www.w3.org/1999/xlink" x="0px" y="0px"
	 viewBox="0 0 300 65" style="enable-background:new 0 0 300 65;" xml:space="preserve">
<g>
	<path fill="none" d="M144,32.5c-1.5,0-2.7,0.4-3.7,1.4c-0.9,0.9-1.4,2.3-1.6,4.1h10.1c0-1.8-0.5-3.2-1.3-4.1
		C146.7,33,145.5,32.5,144,32.5z"/>
	<path fill="none" d="M108.9,32.5c-1.5,0-2.7,0.4-3.7,1.4c-0.9,0.9-1.4,2.3-1.6,4.1h10.1c0-1.8-0.5-3.2-1.3-4.1
		C111.6,33,110.4,32.5,108.9,32.5z"/>
	<path fill="none" d="M207.4,32.5c-1.5,0-2.7,0.4-3.7,1.4c-0.9,0.9-1.4,2.3-1.6,4.1h10.1c0-1.8-0.5-3.2-1.3-4.1
		C210.1,33,208.9,32.5,207.4,32.5z"/>
	<path fill="none" d="M231.6,32.8c-1.8,0-3.2,0.6-4.2,1.8c-1,1.2-1.5,2.9-1.5,5.1c0,2.3,0.5,4,1.5,5.3s2.3,1.9,4.1,1.9
		s3.2-0.6,4.2-1.9c1-1.2,1.5-2.9,1.5-5.2s-0.5-4-1.5-5.2C234.7,33.4,233.4,32.8,231.6,32.8z"/>
	<path fill="none" d="M289.2,41.3c-1.1,0.1-1.9,0.5-2.4,0.9c-0.5,0.4-0.7,1-0.7,1.8c0,0.9,0.3,1.7,1,2.3c0.7,0.6,1.5,0.9,2.5,0.9
		c1.5,0,2.7-0.4,3.6-1.4s1.4-2.3,1.4-3.9V41h-0.8C291.9,41,290.3,41.1,289.2,41.3z"/>
	<path fill="#ffffff" d="M100,21.8c0-1.6-0.9-2.4-2.7-2.4h-22c-1.8,0-2.7,0.8-2.7,2.4c0,1.6,0.9,2.4,2.7,2.4h8.1v24.1
		c0,0.9,0.3,1.6,0.8,2.1s1.2,0.7,2.1,0.7c0.9,0,1.6-0.3,2.1-0.8s0.8-1.2,0.8-2.1v-24h8.1C99.1,24.2,100,23.4,100,21.8z"/>
	<path fill="#ffffff" d="M125.9,19.1c-0.8,0-1.5,0.2-2,0.7c-0.5,0.4-0.8,1.1-0.8,2v26.7c0,0.9,0.3,1.5,0.8,2c0.5,0.4,1.2,0.7,2,0.7
		c0.8,0,1.5-0.2,2-0.7s0.8-1.1,0.8-2V21.8c0-0.9-0.3-1.5-0.8-2C127.4,19.4,126.7,19.1,125.9,19.1z"/>
	<path fill="#ffffff" d="M118.6,39.1c0-2.1-0.4-4-1.2-5.6c-0.8-1.6-1.9-2.8-3.4-3.7c-1.5-0.9-3.2-1.3-5.1-1.3c-2.1,0-3.9,0.5-5.5,1.4
		c-1.6,1-2.9,2.3-3.8,4c-0.9,1.7-1.3,3.7-1.3,5.9c0,3.5,1,6.3,3.1,8.3c2.1,2,4.8,3,8.4,3c1.2,0,2.4-0.2,3.7-0.5
		c1.3-0.3,2.4-0.8,3.4-1.4c1.1-0.6,1.7-1.4,1.7-2.3c0-0.7-0.2-1.2-0.5-1.6c-0.5-0.2-0.9-0.4-1.4-0.4c-0.4,0-1.1,0.2-2,0.7
		c-0.9,0.4-1.7,0.7-2.5,1c-0.7,0.2-1.6,0.4-2.5,0.4c-1.9,0-3.3-0.5-4.3-1.5s-1.6-2.5-1.7-4.5h13.2C118,41,118.6,40.4,118.6,39.1z
		 M103.6,38c0.2-1.8,0.7-3.2,1.6-4.1c1-1,2.2-1.4,3.7-1.4s2.7,0.5,3.5,1.4c0.8,0.9,1.3,2.3,1.3,4.1H103.6z"/>
	<path fill="#ffffff" d="M153.6,39.1c0-2.1-0.4-4-1.2-5.6c-0.8-1.6-1.9-2.8-3.4-3.7c-1.5-0.9-3.2-1.3-5.1-1.3c-2.1,0-3.9,0.5-5.5,1.4
		c-1.6,1-2.9,2.3-3.8,4c-0.9,1.7-1.3,3.7-1.3,5.9c0,3.5,1,6.3,3.1,8.3c2.1,2,4.8,3,8.4,3c1.2,0,2.4-0.2,3.7-0.5
		c1.3-0.3,2.4-0.8,3.4-1.4c1.1-0.6,1.7-1.4,1.7-2.3c0-0.7-0.2-1.2-0.5-1.6c-0.5-0.2-0.9-0.4-1.4-0.4c-0.4,0-1.1,0.2-2,0.7
		c-0.9,0.4-1.7,0.7-2.5,1c-0.7,0.2-1.6,0.4-2.5,0.4c-1.9,0-3.3-0.5-4.3-1.5s-1.6-2.5-1.7-4.5h13.2C153,41,153.6,40.4,153.6,39.1z
		 M138.7,38c0.2-1.8,0.7-3.2,1.6-4.1c1-1,2.2-1.4,3.7-1.4s2.7,0.5,3.5,1.4c0.8,0.9,1.3,2.3,1.3,4.1H138.7z"/>
	<path fill="#ffffff" d="M297.7,30.7c-1.4-1.4-3.6-2.2-6.7-2.2c-1.4,0-2.8,0.2-4.3,0.5c-1.4,0.3-2.7,0.8-3.7,1.3c-0.6,0.3-1,0.7-1.3,1
		c-0.3,0.4-0.4,0.8-0.4,1.3c0,0.6,0.2,1.1,0.5,1.5c0.3,0.4,0.8,0.6,1.3,0.6c0.4,0,0.9-0.2,1.7-0.6c1.2-0.5,2.3-0.8,3.2-1.1
		c0.9-0.3,1.8-0.4,2.6-0.4c1.4,0,2.4,0.3,3,1c0.6,0.7,0.9,1.7,0.9,3.2v1h-1.1c-3.2,0-5.8,0.2-7.6,0.6c-1.8,0.4-3.2,1.1-4,2
		c-0.8,0.9-1.2,2.2-1.2,3.8c0,1.3,0.3,2.4,1,3.5c0.7,1,1.6,1.9,2.8,2.5c1.2,0.6,2.5,0.9,4,0.9c1.4,0,2.7-0.3,3.8-1
		c1.1-0.7,1.9-1.6,2.4-2.7v1c0,0.8,0.2,1.4,0.7,1.9s1.1,0.7,1.9,0.7s1.5-0.2,2-0.7s0.7-1.1,0.7-1.9V37.6
		C299.9,34.5,299.2,32.2,297.7,30.7z M294.6,41.9c0,1.6-0.5,2.9-1.4,3.9s-2.1,1.4-3.6,1.4c-1,0-1.8-0.3-2.5-0.9
		c-0.7-0.6-1-1.4-1-2.3c0-0.8,0.2-1.4,0.7-1.8c0.5-0.4,1.3-0.8,2.4-0.9c1.1-0.2,2.7-0.3,4.6-0.3h0.8V41.9z"/>
	<path fill="#ffffff" d="M184.8,28.5c-1.6,0-3.1,0.4-4.3,1.1c-1.3,0.7-2.2,1.7-2.9,3c-1.1-2.7-3.3-4.1-6.6-4.1c-1.5,0-2.8,0.3-4,0.9
		c-1.1,0.6-2.1,1.5-2.7,2.7V31c0-0.8-0.2-1.4-0.7-1.9c-0.5-0.4-1.1-0.6-1.9-0.6s-1.5,0.2-2,0.7c-0.5,0.4-0.8,1.1-0.8,1.9v17.3
		c0,0.9,0.3,1.5,0.8,2s1.2,0.7,2,0.7s1.5-0.2,2-0.7s0.8-1.1,0.8-2v-10c0-1.7,0.4-3.1,1.3-4.1c0.8-1,2-1.5,3.5-1.5
		c1.2,0,2.1,0.4,2.7,1c0.6,0.7,0.9,1.9,0.9,3.5v11c0,0.9,0.3,1.5,0.8,2s1.2,0.7,2,0.7s1.5-0.2,2-0.7s0.8-1.1,0.8-2v-10
		c0-1.7,0.4-3.1,1.3-4.1c0.9-1,2-1.5,3.5-1.5c1.2,0,2.1,0.4,2.7,1c0.6,0.7,0.9,1.9,0.9,3.5v11c0,0.9,0.3,1.5,0.8,2s1.2,0.7,2,0.7
		s1.5-0.2,2-0.7s0.8-1.1,0.8-2v-11c0-3.2-0.6-5.4-1.9-6.9C189,29.2,187.2,28.5,184.8,28.5z"/>
	<path fill="#ffffff" d="M251.2,18.7c-1,0-1.8,0.3-2.4,0.8c-0.6,0.5-0.9,1.3-0.9,2.1c0,0.9,0.3,1.6,0.9,2.2c0.6,0.6,1.4,0.8,2.4,0.8
		s1.8-0.3,2.4-0.8c0.6-0.6,0.9-1.3,0.9-2.2c0-0.9-0.3-1.6-0.9-2.1C253,19,252.2,18.7,251.2,18.7z"/>
	<path fill="#ffffff" d="M270,32.9c0.8,0,1.5,0.1,2.1,0.3c0.6,0.2,1.2,0.5,1.9,0.9c0.4,0.2,0.7,0.4,1.1,0.5c0.4,0.1,0.7,0.2,1,0.2
		c0.5,0,0.9-0.2,1.2-0.6c0.3-0.4,0.5-0.9,0.5-1.6c0-1-0.5-1.7-1.4-2.4c-0.9-0.6-1.9-1-3.1-1.3s-2.3-0.5-3.5-0.5
		c-2.2,0-4.2,0.5-5.9,1.4c-1.7,1-3,2.3-4,4c-0.9,1.7-1.4,3.7-1.4,6s0.4,4.2,1.3,5.9c0.9,1.7,2.2,3,3.8,3.9c1.8,1.2,3.7,1.7,5.8,1.7
		c1.3,0,2.5-0.2,3.8-0.5c1.2-0.3,2.3-0.8,3.2-1.4c0.5-0.3,0.9-0.6,1.1-1c0.2-0.4,0.3-0.8,0.3-1.3c0-0.6-0.2-1.1-0.5-1.6
		c-0.3-0.4-0.7-0.6-1.2-0.6c-0.3,0-0.7,0.1-1,0.2c-0.3,0.1-0.7,0.3-1.2,0.6c-0.7,0.4-1.4,0.7-1.9,0.9c-0.6,0.2-1.2,0.3-2,0.3
		c-1.8,0-3.3-0.6-4.3-1.8c-1-1.2-1.5-2.9-1.5-5.2c0-2.3,0.5-4,1.5-5.2S268.1,32.9,270,32.9z"/>
	<path fill="#ffffff" d="M251.2,28.6c-0.8,0-1.5,0.2-2,0.7c-0.5,0.4-0.8,1.1-0.8,2v17.2c0,0.9,0.3,1.5,0.8,2c0.5,0.4,1.2,0.7,2,0.7
		s1.5-0.2,2-0.7s0.8-1.1,0.8-2V31.3c0-0.9-0.3-1.5-0.8-2C252.7,28.9,252,28.6,251.2,28.6z"/>
	<path fill="#ffffff" d="M217,39.1c0-2.1-0.4-4-1.2-5.6c-0.8-1.6-1.9-2.8-3.4-3.7c-1.5-0.9-3.2-1.3-5.1-1.3c-2.1,0-3.9,0.5-5.5,1.4
		c-1.6,1-2.9,2.3-3.8,4c-0.9,1.7-1.3,3.7-1.3,5.9c0,3.5,1,6.3,3.1,8.3c2.1,2,4.8,3,8.4,3c1.2,0,2.4-0.2,3.7-0.5
		c1.3-0.3,2.4-0.8,3.4-1.4c1.1-0.6,1.7-1.4,1.7-2.3c0-0.7-0.2-1.2-0.5-1.6c-0.4-0.2-0.9-0.4-1.4-0.4c-0.4,0-1.1,0.2-2,0.7
		c-0.9,0.4-1.7,0.7-2.5,1c-0.7,0.2-1.6,0.4-2.5,0.4c-1.9,0-3.3-0.5-4.3-1.5s-1.6-2.5-1.7-4.5h13.2C216.4,41,217,40.4,217,39.1z
		 M202.1,38c0.2-1.8,0.7-3.2,1.6-4.1c1-1,2.2-1.4,3.7-1.4s2.7,0.5,3.5,1.4c0.8,0.9,1.3,2.3,1.3,4.1H202.1z"/>
	<path fill="#ffffff" d="M239.8,19.2c-0.8,0-1.5,0.2-2,0.7s-0.7,1.1-0.7,1.8v10.6c-0.7-1.2-1.6-2.1-2.8-2.8c-1.2-0.7-2.6-1-4.2-1
		c-1.9,0-3.6,0.5-5,1.4c-1.5,0.9-2.6,2.2-3.4,3.9s-1.2,3.7-1.2,5.9s0.4,4.3,1.2,6s2,3.1,3.4,4c1.5,1,3.1,1.4,5,1.4
		c1.6,0,3-0.3,4.2-1c1.2-0.7,2.2-1.6,2.8-2.9v1.1c0,0.8,0.3,1.4,0.8,1.9s1.2,0.7,2,0.7s1.5-0.2,2-0.7s0.8-1.1,0.8-1.9V21.8
		c0-0.8-0.3-1.4-0.8-1.9C241.3,19.4,240.6,19.2,239.8,19.2z M235.7,45c-1,1.3-2.4,1.9-4.2,1.9s-3.1-0.6-4.1-1.9s-1.5-3-1.5-5.3
		c0-2.2,0.5-3.9,1.5-5.1c1-1.2,2.4-1.8,4.2-1.8c1.8,0,3.1,0.6,4.1,1.8c1,1.2,1.5,2.9,1.5,5.2S236.7,43.8,235.7,45z"/>
</g>
<path fill="#ffffff" d="M54.1,13.6L54,12.5h-1.1c-1.5-0.1-3-0.2-4.4-0.4c-1.4-0.2-2.7-0.5-4-0.8c-0.8-0.2-1.6-0.5-2.4-0.7
	c-0.8-0.3-1.5-0.6-2.2-0.9c-0.4-0.1-0.7-0.3-1-0.5c-2.7-1.2-4.9-2.7-6.6-4c-0.2-0.2-0.4-0.3-0.6-0.5c-1.8-1.4-2.9-2.6-3.4-3.1
	c-0.1-0.1-0.2-0.2-0.2-0.2l-1-1.2l-1,1.2C26,1.5,17.5,12,1.3,12.6H0.2l-0.1,1.1c0,0.4-0.7,9.4,2.1,20.2c3.8,14.3,12.3,24.7,24.4,30
	l0.5,0.2l0.5-0.2c9.1-4,16.1-10.8,20.7-20c1.5-3.1,2.8-6.4,3.7-10c0.3-1,0.5-2,0.7-3c0.3-1.6,0.6-3.2,0.8-4.7c0-0.3,0.1-0.6,0.1-0.9
	c0.2-1.7,0.4-3.3,0.4-4.8c0-0.5,0-0.9,0.1-1.4c0.1-0.5,0-0.9,0-1.2C54.3,15.3,54.2,13.7,54.1,13.6z M39,35.9h-7v7
	c0,2.4-2,4.4-4.4,4.4c-2.4,0-4.4-2-4.4-4.4v-5.7v-1.3h-7c-1,0-1.8-0.3-2.5-0.8c-0.2-0.1-0.3-0.2-0.4-0.3l-0.1-0.1
	c0,0-0.1-0.1-0.2-0.2l-0.1-0.1c-0.1-0.1-0.1-0.2-0.2-0.3L12.6,34c-0.1-0.1-0.2-0.3-0.3-0.4c-0.1-0.1-0.1-0.3-0.2-0.4
	c-0.1,0-0.1-0.1-0.1-0.1c0-0.1-0.1-0.2-0.1-0.3c0-0.1,0-0.1,0-0.2c-0.1-0.1-0.1-0.2-0.1-0.3c0-0.1,0-0.1,0-0.2c0-0.2,0-0.3,0-0.5
	c0-2.4,2-4.4,4.4-4.4H20h3.3V24v-3.8c0-2.4,2-4.4,4.4-4.4c0.2,0,0.3,0,0.5,0c0.1,0,0.1,0,0.2,0c0.1,0.1,0.2,0.1,0.3,0.1
	c0.1,0,0.1,0,0.2,0c0.1,0,0.2,0.1,0.3,0.1c0,0.1,0.1,0.1,0.1,0.1c0.1,0.1,0.3,0.1,0.4,0.2c0.1,0.1,0.3,0.2,0.4,0.3
	c0,0.1,0.1,0.1,0.1,0.1c0.1,0,0.2,0.1,0.3,0.2l0.1,0.1c0,0,0.1,0.1,0.2,0.2l0.1,0.1c0.1,0.1,0.2,0.2,0.3,0.3
	c0.5,0.7,0.8,1.6,0.8,2.5v7h1.3H39c2.4,0,4.4,2,4.4,4.4C43.4,33.9,41.4,35.9,39,35.9z"/>
</svg>
