<?xml version="1.0" encoding="UTF-8"?>
<svg id="Layer_1" data-name="Layer 1" xmlns="http://www.w3.org/2000/svg" viewBox="0 0 776.86 776.86">
  <defs>
    <style>
      .cls-1 {
        fill: none;
        stroke: #010101;
        stroke-linecap: round;
        stroke-linejoin: round;
        stroke-width: 36px;
      }
    </style>
  </defs>
  <g>
    <path class="cls-1" d="M499.48,34.95c-35.06-11-72.36-16.95-111.05-16.95-204.58,0-370.43,165.85-370.43,370.43,0,204.58,165.85,370.43,370.43,370.43,204.58,0,370.43-165.85,370.43-370.43,0-39.14-6.09-76.85-17.34-112.26"/>
    <path class="cls-1" d="M412.88,136.96c-8.05-.77-16.2-1.18-24.45-1.18-139.54,0-252.65,113.12-252.65,252.65,0,139.54,113.12,252.65,252.65,252.65,139.54,0,252.65-113.12,252.65-252.65,0-8.55-.43-16.99-1.26-25.32"/>
    <path class="cls-1" d="M401.58,253.18c-4.33-.42-8.71-.65-13.15-.64-75.05,0-135.89,60.84-135.89,135.89,0,75.05,60.84,135.89,135.89,135.89,75.05,0,135.89-60.84,135.89-135.89,0-4.73-.24-9.41-.72-14.02"/>
    <polyline class="cls-1" points="389.15 386.42 526.14 249.43 526.14 177.05 640.51 62.69 640.51 137.53 714.98 137.53 609.92 242.59"/>
  </g>
  <path class="cls-1" d="M399,368.32c-3.36-2.14-7.35-3.38-11.62-3.38-11.96,0-21.65,9.69-21.65,21.65s9.69,21.65,21.65,21.65,21.65-9.69,21.65-21.65c0-3.95-1.06-7.66-2.91-10.85"/>
</svg>