<?xml version="1.0" encoding="utf-8"?>
<!-- Generator: Adobe Illustrator 28.0.0, SVG Export Plug-In . SVG Version: 6.00 Build 0)  -->
<svg version="1.1" id="Layer_1" xmlns="http://www.w3.org/2000/svg" xmlns:xlink="http://www.w3.org/1999/xlink" x="0px" y="0px"
	 viewBox="0 0 100 100" style="enable-background:new 0 0 100 100;" xml:space="preserve">
<g>
	<path d="M24.4,40c7.3,0,13.2-5.9,13.2-13.2c0-7.3-5.9-13.2-13.2-13.2c-7.3,0-13.2,5.9-13.2,13.2C11.2,34.1,17.1,40,24.4,40z
		 M24.4,15.4c6.3,0,11.5,5.1,11.5,11.5s-5.1,11.5-11.5,11.5c-6.3,0-11.5-5.1-11.5-11.5S18.1,15.4,24.4,15.4z"/>
	<path d="M25.3,26.8v-9c0-0.5-0.4-0.9-0.9-0.9c-0.5,0-0.9,0.4-0.9,0.9V26H15c-0.5,0-0.9,0.4-0.9,0.9c0,0.5,0.4,0.9,0.9,0.9h9.4
		C24.9,27.7,25.3,27.3,25.3,26.8z"/>
	<path d="M40.8,51.1H12.1c-0.5,0-0.9,0.4-0.9,0.9c0,0.5,0.4,0.9,0.9,0.9h28.8c0.5,0,0.9-0.4,0.9-0.9C41.7,51.4,41.3,51.1,40.8,51.1z
		"/>
	<path d="M12.1,46.8H27c0.5,0,0.9-0.4,0.9-0.9c0-0.5-0.4-0.9-0.9-0.9H12.1c-0.5,0-0.9,0.4-0.9,0.9C11.2,46.4,11.6,46.8,12.1,46.8z"
		/>
	<path d="M87.9,29.6h-0.6V14.5c0-0.5-0.4-0.9-0.9-0.9h-7.8c-0.5,0-0.9,0.4-0.9,0.9v15.1h-1.2v-9.9c0-0.5-0.4-0.9-0.9-0.9h-7.8
		c-0.5,0-0.9,0.4-0.9,0.9v9.9h-1.2v-6.6c0-0.5-0.4-0.9-0.9-0.9h-7.8c-0.5,0-0.9,0.4-0.9,0.9v6.6h-2.2V14.5c0-0.5-0.4-0.9-0.9-0.9
		c-0.5,0-0.9,0.4-0.9,0.9v15.9c0,0.5,0.4,0.9,0.9,0.9h3.9h7.8h2.9h7.8h2.9h7.8h1.5c0.5,0,0.9-0.4,0.9-0.9
		C88.8,29.9,88.4,29.6,87.9,29.6z M64.1,29.6h-6.1v-5.8h6.1V29.6z M74.8,29.6h-6.1v-9h6.1V29.6z M85.6,29.6h-6.1V15.4h6.1V29.6z"/>
	<path d="M87.9,51.1H54.1V48l3.1-3.1c1.4-1.4,3.8-1.4,5.2,0c1.9,1.9,5,2.1,7.1,0.5l3.1-2.3c1.2-0.9,2.9-1,4.2-0.2l0.1,0.1
		c2.1,1.4,4.9,1.1,6.7-0.7l4.3-4.2c0.3-0.3,0.4-0.9,0-1.2c-0.3-0.3-0.9-0.4-1.2,0L82.3,41c-1.2,1.2-3.1,1.4-4.5,0.4l-0.1-0.1
		c-1.9-1.2-4.4-1.1-6.2,0.2L68.4,44c-1.5,1.1-3.5,1-4.8-0.3c-2.1-2.1-5.5-2.1-7.6,0l-1.9,1.9V36c0-0.5-0.4-0.9-0.9-0.9
		c-0.5,0-0.9,0.4-0.9,0.9v11.6c0,0,0,0,0,0v4.3c0,0.5,0.4,0.9,0.9,0.9h34.7c0.5,0,0.9-0.4,0.9-0.9C88.8,51.4,88.4,51.1,87.9,51.1z"
		/>
	<path d="M46.6,70.3h6.7c0.5,0,0.9-0.4,0.9-0.9c0-0.5-0.4-0.9-0.9-0.9h-6.7c-0.5,0-0.9,0.4-0.9,0.9C45.8,69.9,46.2,70.3,46.6,70.3z"
		/>
	<path d="M96.6,4.4H3.4C1.5,4.4,0,5.9,0,7.8v67.1c0,1.9,1.5,3.4,3.4,3.4h34.4l-2.8,8.9h-2.8c-2,0-3.5,1.6-3.5,3.5v4
		c0,0.5,0.4,0.9,0.9,0.9h41c0.5,0,0.9-0.4,0.9-0.9v-4c0-2-1.6-3.5-3.5-3.5h-2.7l-2.8-8.9h34.3c1.9,0,3.4-1.5,3.4-3.4V7.8
		C100,5.9,98.5,4.4,96.6,4.4z M64.5,88.9C64.5,88.9,64.5,88.9,64.5,88.9l3.3,0c1,0,1.8,0.8,1.8,1.8v3.1H30.4v-3.1
		c0-1,0.8-1.8,1.8-1.8h3.4c0,0,0,0,0,0c0,0,0,0,0,0L64.5,88.9C64.5,88.9,64.5,88.9,64.5,88.9z M63.3,87.2H36.8l2.8-8.9h20.9
		L63.3,87.2z M98.3,74.9c0,0.9-0.7,1.6-1.6,1.6H3.4c-0.9,0-1.6-0.7-1.6-1.6V62.3h96.5V74.9z M98.3,60.5H1.7V7.8
		c0-0.9,0.7-1.6,1.6-1.6h93.3c0.9,0,1.6,0.7,1.6,1.6V60.5z"/>
</g>
</svg>
