<?xml version="1.0" encoding="UTF-8"?>
<svg id="Layer_1" data-name="Layer 1" xmlns="http://www.w3.org/2000/svg" viewBox="0 0 165.15 200">
  <path d="M110.44,53.42H49.11v-4.4h61.33v4.4Zm-69.46-6.64l-3.53-3.53-7.35,7.36-4.35-4.35-3.51,3.51,7.87,7.87,10.88-10.86Zm69.46,25.62H49.11v4.4h61.33v-4.4Zm-69.46-2.25l-3.53-3.53-7.35,7.36-4.35-4.35-3.51,3.51,7.87,7.87,10.88-10.86Zm61.16,25.62H49.11v4.4h53.03v-4.4Zm-61.16-2.25l-3.53-3.53-7.35,7.36-4.35-4.35-3.51,3.51,7.87,7.87,10.88-10.86Zm124.16,18.57v46.67c0,23.08-39.05,40.08-40.72,40.79l-1.05,.45-1.05-.45c-.95-.41-13.98-6.08-25.05-15.14H0V26.98H13.98V13h13V0H159.57V111.08c1.11,.23,2.23,.44,3.35,.63l2.22,.37Zm-41.76,82.11l.38-.17c13.39-6.11,36.06-20.42,36.06-35.27v-42.18l-.74-.15c-13.89-2.77-26.35-8.46-35.09-16.03l-.6-.52-.6,.52c-8.74,7.57-21.21,13.26-35.09,16.03l-.74,.15v42.18c0,14.85,22.66,29.15,36.06,35.27l.38,.17Zm-31.92-15.12c-4.85-5.04-8.6-10.81-9.59-17.09H22.24v-4.4h59.38v-16.21H22.24v-4.4h59.38v-16.21H22.24v-4.4h59.38v-4.29l2.22-.37c15.4-2.57,29.12-8.91,37.66-17.39l1.88-1.86,1.88,1.86c.63,.63,1.3,1.24,1.99,1.85V32.31H5.34V179.08H91.46ZM32.32,5.34v7.66h114.25V107.35c2.46,.93,5.03,1.76,7.66,2.47V5.34H32.32Zm-13,21.64h113.28V100.26c2.64,1.77,5.54,3.39,8.64,4.83V18.34H19.31v8.64Zm83.55,120.88l17.26,17.26,28.07-28.04-4.84-4.84-23.23,23.25-12.44-12.44-4.81,4.81Z"/>
</svg>