<?xml version="1.0" encoding="utf-8"?>
<!-- Generator: Adobe Illustrator 28.0.0, SVG Export Plug-In . SVG Version: 6.00 Build 0)  -->
<svg version="1.1" id="Layer_1" xmlns="http://www.w3.org/2000/svg" xmlns:xlink="http://www.w3.org/1999/xlink" x="0px" y="0px"
	 viewBox="0 0 100 100" style="enable-background:new 0 0 100 100;" xml:space="preserve">
<g>
	<path d="M80.9,27.4c0.7-2.6,1-5.3,0.8-7.8c-0.3-3.6-1.5-6.8-3.7-9.3c-3.6-4.4-8.5-6.6-14.3-6.6c-6.6,0-11.4,5.3-13.7,8.7
		c-2.4-3.5-7.1-8.7-13.7-8.7c-5.9,0-10.7,2.2-14.3,6.6c-2.2,2.6-3.4,5.7-3.7,9.3c-0.2,2.5,0.1,5.1,0.8,7.8c1.3,4.5,4.2,8.7,9.1,12.9
		c5.4,4.7,11.4,9.3,18.5,14.1c2.1,1.4,2.7,1.7,3,1.8c0,0,0,0,0,0c0,0,0,0,0.1,0c0.1,0,0.1,0,0.2,0c0,0,0,0,0,0c0,0,0,0,0,0
		c0,0,0,0,0,0l0,0c0,0,0,0,0,0c0,0,0,0,0,0l0,0l0,0c0,0,0,0,0,0c0,0,0,0,0,0l0,0c0,0,0,0,0,0c0,0,0,0,0,0c0,0,0,0,0,0
		c0.1,0,0.1,0,0.2,0c0,0,0,0,0.1,0c0,0,0,0,0.1,0c0.3-0.1,0.9-0.4,3-1.8c7-4.8,13.1-9.4,18.5-14.1C76.7,36.1,79.7,31.9,80.9,27.4z
		 M52.1,52.5c-1.1,0.8-1.7,1.1-2.1,1.3c-0.3-0.2-0.9-0.6-2.1-1.3c-7-4.7-12.9-9.3-18.3-13.9c-4.5-3.9-7.2-7.8-8.3-11.8
		c-0.7-2.4-0.9-4.7-0.7-7c0.2-3.1,1.3-5.8,3.1-8C26.9,7.9,31.1,6,36.3,6C43,6,47.7,13,49,15.1c0,0,0,0,0,0c0,0,0,0.1,0.1,0.1
		c0,0,0,0.1,0.1,0.1c0,0,0.1,0,0.1,0.1c0,0,0.1,0.1,0.1,0.1c0,0,0,0,0,0c0,0,0,0,0,0c0,0,0.1,0,0.1,0.1c0,0,0.1,0,0.1,0
		c0,0,0.1,0,0.1,0c0,0,0.1,0,0.1,0c0,0,0.1,0,0.1,0c0,0,0.1,0,0.1,0c0,0,0.1,0,0.1,0c0,0,0.1,0,0.1,0c0,0,0.1,0,0.1,0
		c0,0,0.1,0,0.1-0.1c0,0,0,0,0,0c0,0,0,0,0,0c0,0,0.1,0,0.1-0.1c0,0,0.1,0,0.1-0.1c0,0,0.1-0.1,0.1-0.1c0,0,0.1-0.1,0.1-0.1
		c0,0,0,0,0,0C52.3,13,57,6,63.7,6c5.1,0,9.3,1.9,12.5,5.8c1.8,2.2,2.9,4.9,3.1,8c0.2,2.2-0.1,4.6-0.7,7c-1.1,4-3.9,7.9-8.3,11.8
		C65,43.2,59,47.7,52.1,52.5z"/>
	<path d="M95.6,31.2c-2.3-0.2-4.5,1.5-5.1,4.1c0,0,0,0,0,0.1l-2.5,14c-1.8-1.2-4.2-1.1-5.9,0.3l-8,6.6l-2.9,0.9
		c-1.5,0.5-2.9,1.2-4.1,2.2l-5,4c-2,1.6-3.2,3.9-3.5,6.4l-1,9.8c-0.1,0.6,0.4,1.2,1,1.3c0,0,0.1,0,0.1,0c0.6,0,1.1-0.4,1.2-1l1-9.8
		c0.2-1.9,1.2-3.6,2.7-4.8l5-4c1-0.8,2.1-1.4,3.3-1.8l3.1-1c0.1,0,0.3-0.1,0.4-0.2l8.2-6.8c1.1-0.9,2.7-0.7,3.6,0.3
		c0.9,1.1,0.7,2.7-0.3,3.6l-8.2,6.8c-0.5,0.4-0.6,1.1-0.2,1.6c0.4,0.5,1.1,0.6,1.6,0.2l8.2-6.8c1.6-1.3,2.1-3.4,1.5-5.3l2.9-16.1
		c0.4-1.4,1.5-2.4,2.6-2.3c2,0.2,2.3,2.4,2.3,4.2l-0.2,21.9c0,1.4-0.6,2.7-1.7,3.6L76.9,78.8c-0.2,0.2-0.4,0.5-0.4,0.7l-0.8,2.8
		H57.9c-1.3,0-2.3,1-2.3,2.3v9.5c0,1.3,1,2.3,2.3,2.3h20.4c1.3,0,2.3-1,2.3-2.3v-9.5c0-1.3-1-2.3-2.3-2.3h-0.3l0.6-1.9l18.6-15.3
		c1.6-1.3,2.6-3.3,2.6-5.4l0.2-21.9C100.1,32.2,96.9,31.3,95.6,31.2z M78.3,94H57.9v-9.4h20.3V94z"/>
	<path d="M42.1,82.3H24.4l-0.8-2.8c0-0.3-0.2-0.5-0.4-0.7L4.3,63.3c-1.1-0.9-1.7-2.2-1.7-3.6L2.3,37.7c0-1.8,0.3-4,2.3-4.2
		c1.2-0.1,2.3,0.8,2.6,2.3l2.9,16.1c-0.6,1.8,0,3.9,1.5,5.3l8.2,6.8c0.5,0.4,1.2,0.3,1.6-0.2c0.4-0.5,0.3-1.2-0.2-1.6l-8.2-6.8
		c-1.1-0.9-1.2-2.5-0.3-3.6c0.9-1.1,2.5-1.2,3.6-0.3l8.2,6.8c0.1,0.1,0.3,0.2,0.4,0.2l3.1,1c1.2,0.4,2.3,1,3.3,1.8l5,4
		c1.5,1.2,2.4,2.9,2.7,4.8l1,9.8c0.1,0.6,0.6,1,1.2,1c0,0,0.1,0,0.1,0c0.6-0.1,1.1-0.6,1-1.3l-1-9.8c-0.3-2.5-1.5-4.8-3.5-6.4l-5-4
		c-1.2-1-2.6-1.7-4.1-2.2L26,56.3l-8-6.6c-1.7-1.4-4.1-1.5-5.9-0.3l-2.5-14c0,0,0,0,0-0.1c-0.6-2.6-2.8-4.3-5.1-4.1
		c-1.4,0.1-4.5,1-4.4,6.5l0.2,21.9c0,2.1,1,4.1,2.6,5.4l18.6,15.3l0.6,1.9h-0.3c-1.3,0-2.3,1-2.3,2.3v9.5c0,1.3,1,2.3,2.3,2.3h20.4
		c1.3,0,2.3-1,2.3-2.3v-9.5C44.4,83.4,43.4,82.3,42.1,82.3z M42.1,94H21.7v-9.4h20.3V94z"/>
</g>
</svg>
