<?xml version="1.0" encoding="utf-8"?>
<!-- Generator: Adobe Illustrator 28.0.0, SVG Export Plug-In . SVG Version: 6.00 Build 0)  -->
<svg version="1.1" id="Layer_1" xmlns="http://www.w3.org/2000/svg" xmlns:xlink="http://www.w3.org/1999/xlink" x="0px" y="0px"
	 viewBox="0 0 100 100" style="enable-background:new 0 0 100 100;" xml:space="preserve">
<g>
	<path d="M72.3,32.3H27.7c-1,0-1.7,0.8-1.7,1.7c0,1,0.8,1.7,1.7,1.7h44.7c1,0,1.7-0.8,1.7-1.7C74.1,33.1,73.3,32.3,72.3,32.3z"/>
	<path d="M72.3,44.2H27.7c-1,0-1.7,0.8-1.7,1.7s0.8,1.7,1.7,1.7h44.7c1,0,1.7-0.8,1.7-1.7S73.3,44.2,72.3,44.2z"/>
	<path d="M72.3,56.1H27.7c-1,0-1.7,0.8-1.7,1.7c0,1,0.8,1.7,1.7,1.7h44.7c1,0,1.7-0.8,1.7-1.7C74.1,56.9,73.3,56.1,72.3,56.1z"/>
	<path d="M72.3,68H27.7c-1,0-1.7,0.8-1.7,1.7c0,1,0.8,1.7,1.7,1.7h44.7c1,0,1.7-0.8,1.7-1.7C74.1,68.7,73.3,68,72.3,68z"/>
	<path d="M72.3,79.9H27.7c-1,0-1.7,0.8-1.7,1.7c0,1,0.8,1.7,1.7,1.7h44.7c1,0,1.7-0.8,1.7-1.7C74.1,80.6,73.3,79.9,72.3,79.9z"/>
	<path d="M86.2,20c0-0.2,0-0.3-0.1-0.4c0-0.1,0-0.1-0.1-0.2c-0.1-0.2-0.2-0.4-0.3-0.5L67.3,0.5c-0.1-0.1-0.3-0.3-0.5-0.3
		c-0.1,0-0.1,0-0.2-0.1c-0.1,0-0.3-0.1-0.4-0.1c0,0-0.1,0-0.1,0H15.5c-1,0-1.7,0.8-1.7,1.7v96.6c0,1,0.8,1.7,1.7,1.7h69
		c1,0,1.7-0.8,1.7-1.7V20.1C86.2,20,86.2,20,86.2,20z M67.8,5.9l6.2,6.2l6.2,6.2H67.8V5.9z M17.2,96.6V3.4h47.2v16.6
		c0,1,0.8,1.7,1.7,1.7h16.6v74.7H17.2z"/>
</g>
</svg>
