<?xml version="1.0" encoding="utf-8"?>
<!-- Generator: Adobe Illustrator 27.7.0, SVG Export Plug-In . SVG Version: 6.00 Build 0)  -->
<svg version="1.1" id="Layer_1" xmlns="http://www.w3.org/2000/svg" xmlns:xlink="http://www.w3.org/1999/xlink" x="0px" y="0px"
	 viewBox="0 0 313 49" style="enable-background:new 0 0 313 49;" xml:space="preserve">
<style type="text/css">
	.st0{opacity:4.000000e-02;}
</style>
<g class="st0">
	<path d="M308.4,20.1h-16v-16c0-2.3-1.8-4.1-4.1-4.1c-2.3,0-4.1,1.8-4.1,4.1v16h-16c-2.3,0-4.1,1.8-4.1,4.1s1.8,4.1,4.1,4.1h16v16
		c0,2.3,1.8,4.1,4.1,4.1c2.3,0,4.1-1.8,4.1-4.1v-16h16c2.3,0,4.1-1.8,4.1-4.1S310.6,20.1,308.4,20.1z"/>
	<path d="M220.4,20.1h-16v-16c0-2.3-1.8-4.1-4.1-4.1c-2.3,0-4.1,1.8-4.1,4.1v16h-16c-2.3,0-4.1,1.8-4.1,4.1s1.8,4.1,4.1,4.1h16v16
		c0,2.3,1.8,4.1,4.1,4.1c2.3,0,4.1-1.8,4.1-4.1v-16h16c2.3,0,4.1-1.8,4.1-4.1S222.6,20.1,220.4,20.1z"/>
	<path d="M132.4,20.1h-16v-16c0-2.3-1.8-4.1-4.1-4.1c-2.3,0-4.1,1.8-4.1,4.1v16h-16c-2.3,0-4.1,1.8-4.1,4.1s1.8,4.1,4.1,4.1h16v16
		c0,2.3,1.8,4.1,4.1,4.1c2.3,0,4.1-1.8,4.1-4.1v-16h16c2.3,0,4.1-1.8,4.1-4.1S134.6,20.1,132.4,20.1z"/>
	<path d="M44.4,20.1h-16v-16c0-2.3-1.8-4.1-4.1-4.1c-2.3,0-4.1,1.8-4.1,4.1v16h-16C1.8,20.1,0,22,0,24.2s1.8,4.1,4.1,4.1h16v16
		c0,2.3,1.8,4.1,4.1,4.1c2.3,0,4.1-1.8,4.1-4.1v-16h16c2.3,0,4.1-1.8,4.1-4.1S46.6,20.1,44.4,20.1z"/>
</g>
</svg>
