<svg version="1.1" id="Layer_1"
	xmlns="http://www.w3.org/2000/svg"
	xmlns:xlink="http://www.w3.org/1999/xlink" x="0px" y="0px" viewBox="0 0 300 65" style="enable-background:new 0 0 300 65;" xml:space="preserve">
	<g>
		<g>
			<path fill="#304278" d="M144,32.5c1.5,0,2.7,0.5,3.5,1.4c0.8,0.9,1.3,2.3,1.3,4.1h-10.1c0.2-1.8,0.7-3.2,1.6-4.1
			C141.3,32.9,142.5,32.5,144,32.5z M151.7,44.9c-0.4,0-1.1,0.2-2,0.7c-0.9,0.4-1.7,0.7-2.5,1c-0.7,0.2-1.6,0.4-2.5,0.4
			c-1.9,0-3.3-0.5-4.3-1.5c-1-1-1.6-2.5-1.7-4.5h13.2c1.1,0,1.7-0.6,1.7-1.9c0-2.1-0.4-4-1.2-5.6c-0.8-1.6-1.9-2.8-3.4-3.7
			c-1.5-0.9-3.2-1.3-5.1-1.3c-2.1,0-3.9,0.5-5.5,1.4c-1.6,1-2.9,2.3-3.8,4c-0.9,1.7-1.3,3.7-1.3,5.9c0,3.5,1,6.3,3.1,8.3
			c2.1,2,4.8,3,8.4,3c1.2,0,2.4-0.2,3.7-0.5c1.3-0.3,2.4-0.8,3.4-1.4c1.1-0.6,1.7-1.4,1.7-2.3c0-0.7-0.2-1.2-0.5-1.6
			C152.6,45.1,152.2,44.9,151.7,44.9z M125.9,51.2c0.8,0,1.5-0.2,2-0.7c0.5-0.5,0.8-1.1,0.8-2V21.8c0-0.9-0.3-1.5-0.8-2
			c-0.5-0.4-1.2-0.7-2-0.7s-1.5,0.2-2,0.7c-0.5,0.4-0.8,1.1-0.8,2v26.7c0,0.9,0.3,1.5,0.8,2C124.4,50.9,125.1,51.2,125.9,51.2z
			 M108.9,32.5c1.5,0,2.7,0.5,3.5,1.4c0.8,0.9,1.3,2.3,1.3,4.1h-10.1c0.2-1.8,0.7-3.2,1.6-4.1C106.2,32.9,107.4,32.5,108.9,32.5z
			 M116.7,44.9c-0.4,0-1.1,0.2-2,0.7c-0.9,0.4-1.7,0.7-2.5,1c-0.7,0.2-1.6,0.4-2.5,0.4c-1.9,0-3.3-0.5-4.3-1.5c-1-1-1.6-2.5-1.7-4.5
			h13.2c1.1,0,1.7-0.6,1.7-1.9c0-2.1-0.4-4-1.2-5.6c-0.8-1.6-1.9-2.8-3.4-3.7c-1.5-0.9-3.2-1.3-5.1-1.3c-2.1,0-3.9,0.5-5.5,1.4
			c-1.6,1-2.9,2.3-3.8,4c-0.9,1.7-1.3,3.7-1.3,5.9c0,3.5,1,6.3,3.1,8.3c2.1,2,4.8,3,8.4,3c1.2,0,2.4-0.2,3.7-0.5
			c1.3-0.3,2.4-0.8,3.4-1.4c1.1-0.6,1.7-1.4,1.7-2.3c0-0.7-0.2-1.2-0.5-1.6C117.6,45.1,117.2,44.9,116.7,44.9z M86.3,51.1
			c0.9,0,1.6-0.3,2.1-0.8c0.5-0.5,0.8-1.2,0.8-2.1V24.2h8.1c1.8,0,2.7-0.8,2.7-2.4c0-1.6-0.9-2.4-2.7-2.4h-22
			c-1.8,0-2.7,0.8-2.7,2.4c0,1.6,0.9,2.4,2.7,2.4h8.1v24.1c0,0.9,0.3,1.6,0.8,2.1C84.7,50.9,85.4,51.1,86.3,51.1z"/>
			<path fill="#74C8B4" d="M289.6,47.2c-1,0-1.8-0.3-2.5-0.9c-0.7-0.6-1-1.4-1-2.3c0-0.8,0.2-1.4,0.7-1.8
			c0.5-0.4,1.3-0.8,2.4-0.9c1.1-0.2,2.7-0.3,4.6-0.3h0.8v0.9c0,1.6-0.5,2.9-1.4,3.9C292.3,46.8,291.1,47.2,289.6,47.2z M291,28.5
			c-1.4,0-2.8,0.2-4.3,0.5c-1.4,0.3-2.7,0.8-3.7,1.3c-0.6,0.3-1,0.7-1.3,1c-0.3,0.4-0.4,0.8-0.4,1.3c0,0.6,0.2,1.1,0.5,1.5
			c0.3,0.4,0.8,0.6,1.3,0.6c0.4,0,0.9-0.2,1.7-0.6c1.2-0.5,2.3-0.8,3.2-1.1c0.9-0.3,1.8-0.4,2.6-0.4c1.4,0,2.4,0.3,3,1
			c0.6,0.7,0.9,1.7,0.9,3.2v1h-1.1c-3.2,0-5.8,0.2-7.6,0.6c-1.8,0.4-3.2,1.1-4,2c-0.8,0.9-1.2,2.2-1.2,3.8c0,1.3,0.3,2.4,1,3.5
			c0.7,1,1.6,1.9,2.8,2.5c1.2,0.6,2.5,0.9,4,0.9c1.4,0,2.7-0.3,3.8-1c1.1-0.7,1.9-1.6,2.4-2.7v1c0,0.8,0.2,1.4,0.7,1.9
			c0.5,0.5,1.1,0.7,1.9,0.7c0.8,0,1.5-0.2,2-0.7c0.5-0.5,0.7-1.1,0.7-1.9V37.6c0-3.1-0.7-5.4-2.2-6.9
			C296.3,29.3,294.1,28.5,291,28.5z M269.4,51.3c1.3,0,2.5-0.2,3.8-0.5c1.2-0.3,2.3-0.8,3.2-1.4c0.5-0.3,0.9-0.6,1.1-1
			c0.2-0.4,0.3-0.8,0.3-1.3c0-0.6-0.2-1.1-0.5-1.6c-0.3-0.4-0.7-0.6-1.2-0.6c-0.3,0-0.7,0.1-1,0.2c-0.3,0.1-0.7,0.3-1.2,0.6
			c-0.7,0.4-1.4,0.7-1.9,0.9c-0.6,0.2-1.2,0.3-2,0.3c-1.8,0-3.3-0.6-4.3-1.8c-1-1.2-1.5-2.9-1.5-5.2c0-2.3,0.5-4,1.5-5.2
			c1-1.2,2.4-1.8,4.3-1.8c0.8,0,1.5,0.1,2.1,0.3c0.6,0.2,1.2,0.5,1.9,0.9c0.4,0.2,0.7,0.4,1.1,0.5c0.4,0.1,0.7,0.2,1,0.2
			c0.5,0,0.9-0.2,1.2-0.6c0.3-0.4,0.5-0.9,0.5-1.6c0-1-0.5-1.7-1.4-2.4c-0.9-0.6-1.9-1-3.1-1.3c-1.2-0.3-2.3-0.5-3.5-0.5
			c-2.2,0-4.2,0.5-5.9,1.4c-1.7,1-3,2.3-4,4c-0.9,1.7-1.4,3.7-1.4,6c0,2.3,0.4,4.2,1.3,5.9c0.9,1.7,2.2,3,3.8,3.9
			C265.4,50.8,267.3,51.3,269.4,51.3z M251.2,24.6c1,0,1.8-0.3,2.4-0.8c0.6-0.6,0.9-1.3,0.9-2.2c0-0.9-0.3-1.6-0.9-2.1
			c-0.6-0.5-1.4-0.8-2.4-0.8c-1,0-1.8,0.3-2.4,0.8c-0.6,0.5-0.9,1.3-0.9,2.1c0,0.9,0.3,1.6,0.9,2.2
			C249.4,24.4,250.2,24.6,251.2,24.6z M251.2,51.2c0.8,0,1.5-0.2,2-0.7c0.5-0.5,0.8-1.1,0.8-2V31.3c0-0.9-0.3-1.5-0.8-2
			c-0.5-0.4-1.2-0.7-2-0.7c-0.8,0-1.5,0.2-2,0.7c-0.5,0.4-0.8,1.1-0.8,2v17.2c0,0.9,0.3,1.5,0.8,2C249.7,50.9,250.4,51.2,251.2,51.2
			z M231.5,46.9c-1.8,0-3.1-0.6-4.1-1.9c-1-1.3-1.5-3-1.5-5.3c0-2.2,0.5-3.9,1.5-5.1c1-1.2,2.4-1.8,4.2-1.8c1.8,0,3.1,0.6,4.1,1.8
			c1,1.2,1.5,2.9,1.5,5.2c0,2.3-0.5,4-1.5,5.2C234.7,46.3,233.3,46.9,231.5,46.9z M239.8,19.2c-0.8,0-1.5,0.2-2,0.7
			c-0.5,0.5-0.7,1.1-0.7,1.8v10.6c-0.7-1.2-1.6-2.1-2.8-2.8c-1.2-0.7-2.6-1-4.2-1c-1.9,0-3.6,0.5-5,1.4c-1.5,0.9-2.6,2.2-3.4,3.9
			c-0.8,1.7-1.2,3.7-1.2,5.9s0.4,4.3,1.2,6c0.8,1.7,2,3.1,3.4,4c1.5,1,3.1,1.4,5,1.4c1.6,0,3-0.3,4.2-1c1.2-0.7,2.2-1.6,2.8-2.9v1.1
			c0,0.8,0.3,1.4,0.8,1.9c0.5,0.5,1.2,0.7,2,0.7c0.8,0,1.5-0.2,2-0.7c0.5-0.5,0.8-1.1,0.8-1.9V21.8c0-0.8-0.3-1.4-0.8-1.9
			C241.3,19.4,240.6,19.2,239.8,19.2z M207.4,32.5c1.5,0,2.7,0.5,3.5,1.4c0.8,0.9,1.3,2.3,1.3,4.1h-10.1c0.2-1.8,0.7-3.2,1.6-4.1
			C204.7,32.9,205.9,32.5,207.4,32.5z M215.1,44.9c-0.4,0-1.1,0.2-2,0.7c-0.9,0.4-1.7,0.7-2.5,1c-0.7,0.2-1.6,0.4-2.5,0.4
			c-1.9,0-3.3-0.5-4.3-1.5c-1-1-1.6-2.5-1.7-4.5h13.2c1.1,0,1.7-0.6,1.7-1.9c0-2.1-0.4-4-1.2-5.6c-0.8-1.6-1.9-2.8-3.4-3.7
			c-1.5-0.9-3.2-1.3-5.1-1.3c-2.1,0-3.9,0.5-5.5,1.4c-1.6,1-2.9,2.3-3.8,4c-0.9,1.7-1.3,3.7-1.3,5.9c0,3.5,1,6.3,3.1,8.3
			s4.8,3,8.4,3c1.2,0,2.4-0.2,3.7-0.5c1.3-0.3,2.4-0.8,3.4-1.4c1.1-0.6,1.7-1.4,1.7-2.3c0-0.7-0.2-1.2-0.5-1.6
			C216.1,45.1,215.6,44.9,215.1,44.9z M184.8,28.5c-1.6,0-3.1,0.4-4.3,1.1c-1.3,0.7-2.2,1.7-2.9,3c-1.1-2.7-3.3-4.1-6.6-4.1
			c-1.5,0-2.8,0.3-4,0.9c-1.1,0.6-2.1,1.5-2.7,2.7v-1.1c0-0.8-0.2-1.4-0.7-1.9c-0.5-0.4-1.1-0.6-1.9-0.6c-0.8,0-1.5,0.2-2,0.7
			c-0.5,0.4-0.8,1.1-0.8,1.9v17.3c0,0.9,0.3,1.5,0.8,2c0.5,0.5,1.2,0.7,2,0.7s1.5-0.2,2-0.7c0.5-0.5,0.8-1.1,0.8-2v-10
			c0-1.7,0.4-3.1,1.3-4.1c0.8-1,2-1.5,3.5-1.5c1.2,0,2.1,0.4,2.7,1c0.6,0.7,0.9,1.9,0.9,3.5v11c0,0.9,0.3,1.5,0.8,2
			c0.5,0.5,1.2,0.7,2,0.7s1.5-0.2,2-0.7c0.5-0.5,0.8-1.1,0.8-2v-10c0-1.7,0.4-3.1,1.3-4.1c0.9-1,2-1.5,3.5-1.5c1.2,0,2.1,0.4,2.7,1
			c0.6,0.7,0.9,1.9,0.9,3.5v11c0,0.9,0.3,1.5,0.8,2c0.5,0.5,1.2,0.7,2,0.7c0.8,0,1.5-0.2,2-0.7c0.5-0.5,0.8-1.1,0.8-2v-11
			c0-3.2-0.6-5.4-1.9-6.9C189,29.2,187.2,28.5,184.8,28.5z"/>
		</g>
		<path fill="#74C8B4" d="M54.1,13.6l-0.1-1.1l-1.1,0c-1.5-0.1-3-0.2-4.4-0.4c-1.4-0.2-2.7-0.5-4-0.8
		c-0.8-0.2-1.6-0.5-2.4-0.7c-0.8-0.3-1.5-0.6-2.2-0.9c-0.4-0.1-0.7-0.3-1-0.5c-2.7-1.2-4.9-2.7-6.6-4c-0.2-0.2-0.4-0.3-0.6-0.5
		c-1.8-1.4-2.9-2.6-3.4-3.1c-0.1-0.1-0.2-0.2-0.2-0.2c0,0,0,0,0,0l-1-1.2l0,0l0,0l-1,1.2c-0.1,0.1-8.6,10.6-24.8,11.2l-1.1,0
		l-0.1,1.1c0,0.4-0.7,9.4,2.1,20.2c3.8,14.3,12.3,24.7,24.4,30l0.5,0.2l0.5-0.2c9.1-4,16.1-10.8,20.7-20c1.5-3.1,2.8-6.4,3.7-10
		c0.3-1,0.5-2,0.7-3c0.3-1.6,0.6-3.2,0.8-4.7c0-0.3,0.1-0.6,0.1-0.9c0.2-1.7,0.4-3.3,0.4-4.8c0-0.5,0-0.9,0.1-1.4s0-0.9,0-1.2
		C54.3,15.3,54.2,13.7,54.1,13.6z"/>
		<path fill="#FFFFFF" d="M39,27.1h-5.7H32h0v-7c0-0.9-0.3-1.8-0.8-2.5c0,0,0,0,0,0c0,0,0,0,0,0c-0.1-0.1-0.2-0.2-0.3-0.3
		c0,0-0.1-0.1-0.1-0.1c-0.1-0.1-0.2-0.2-0.2-0.2c0,0-0.1-0.1-0.1-0.1c-0.1-0.1-0.2-0.2-0.3-0.2c0,0-0.1,0-0.1-0.1
		c-0.1-0.1-0.3-0.2-0.4-0.3c0,0,0,0,0,0c-0.1-0.1-0.3-0.1-0.4-0.2c0,0-0.1,0-0.1-0.1c-0.1,0-0.2-0.1-0.3-0.1c-0.1,0-0.1,0-0.2,0
		c-0.1,0-0.2,0-0.3-0.1c-0.1,0-0.1,0-0.2,0c-0.2,0-0.3,0-0.5,0c-2.4,0-4.4,2-4.4,4.4v3.8v3.2H20h-3.8c-2.4,0-4.4,2-4.4,4.4
		c0,0.2,0,0.3,0,0.5c0,0.1,0,0.1,0,0.2c0,0.1,0,0.2,0.1,0.3c0,0.1,0,0.1,0,0.2c0,0.1,0.1,0.2,0.1,0.3c0,0,0,0.1,0.1,0.1
		c0.1,0.1,0.1,0.3,0.2,0.4c0,0,0,0,0,0c0.1,0.1,0.2,0.3,0.3,0.4c0,0,0.1,0.1,0.1,0.1c0.1,0.1,0.1,0.2,0.2,0.3c0,0,0.1,0.1,0.1,0.1
		c0.1,0.1,0.2,0.2,0.2,0.2c0,0,0.1,0.1,0.1,0.1c0.1,0.1,0.2,0.2,0.4,0.3c0,0,0,0,0,0c0,0,0,0,0,0c0.7,0.5,1.5,0.8,2.5,0.8h7v1.3v5.7
		c0,2.4,2,4.4,4.4,4.4s4.4-2,4.4-4.4v-7h7c2.4,0,4.4-2,4.4-4.4C43.4,29.1,41.4,27.1,39,27.1z"/>
	</g>
</svg>
