<?xml version="1.0" standalone="no"?>
<!DOCTYPE svg PUBLIC "-//W3C//DTD SVG 20010904//EN"
 "http://www.w3.org/TR/2001/REC-SVG-20010904/DTD/svg10.dtd">
<svg version="1.0" xmlns="http://www.w3.org/2000/svg"
 width="700.000000pt" height="700.000000pt" viewBox="0 0 700.000000 700.000000"
 preserveAspectRatio="xMidYMid meet">
<metadata>
Created by potrace 1.14, written by Peter Selinger 2001-2017
</metadata>
<g transform="translate(0.000000,700.000000) scale(0.100000,-0.100000)"
fill="#000000" stroke="none">
<path d="M3455 6948 c-63 -82 -251 -273 -360 -367 -662 -570 -1497 -897 -2395
-937 l-149 -7 -8 -76 c-12 -116 -8 -685 6 -871 75 -996 299 -1845 675 -2565
470 -898 1141 -1568 2006 -2000 80 -40 173 -84 207 -99 l62 -26 103 45 c752
334 1422 904 1895 1615 563 846 877 1868 948 3087 18 309 23 730 10 828 l-10
70 -180 12 c-324 21 -466 39 -720 95 -560 122 -1107 393 -1583 786 -126 105
-338 309 -423 409 l-44 53 -40 -52z m295 -1692 c25 -14 55 -34 67 -46 12 -11
26 -20 31 -20 14 0 108 -103 127 -139 50 -98 49 -90 55 -556 l5 -440 440 -5
c433 -5 441 -5 498 -28 131 -53 246 -177 287 -308 86 -278 -103 -572 -395
-614 -38 -5 -240 -10 -447 -10 l-378 0 0 -399 c0 -229 -4 -421 -10 -452 -16
-84 -63 -173 -126 -240 -106 -111 -215 -154 -373 -147 -86 3 -105 7 -174 41
-105 49 -184 129 -235 234 l-37 78 -3 442 -3 442 -427 3 c-414 3 -429 4 -490
26 -111 40 -173 86 -246 182 -81 108 -101 170 -92 275 21 220 134 374 332 447
57 21 76 22 492 26 l432 3 0 393 c0 239 4 416 11 452 25 140 129 279 257 343
88 44 122 51 247 47 95 -4 116 -8 155 -30z"/>
</g>
</svg>
