<svg id="Group_224" data-name="Group 224" xmlns="http://www.w3.org/2000/svg" xmlns:xlink="http://www.w3.org/1999/xlink" style="width: 203.332px; height: 41.77px;" viewBox="0 0 203.332 41.77">
<defs>
<clipPath id="clip-path">
<path id="Polygon_2" data-name="Polygon 2" d="M13.759,0,17.2,9.741,27.518,10l-8.193,6.284,2.938,9.9-8.5-5.857-8.5,5.857,2.938-9.9L0,10l10.319-.264Z"></path>
</clipPath>
</defs>
<g id="Group_170" data-name="Group 170" transform="translate(54.737 8)">
<g id="Group_168" data-name="Group 168">
<g id="Polygon_2-2" data-name="Polygon 2" fill="#fff">
<path d="M13.759,0,17.2,9.741,27.518,10l-8.193,6.284,2.938,9.9-8.5-5.857-8.5,5.857,2.938-9.9L0,10l10.319-.264Z" stroke="none"></path>
<path d="M 13.75877380371094 0 L 17.1984748840332 9.740642547607422 L 27.51754570007324 10.00469970703125 L 19.32431793212891 16.28879928588867 L 22.26215934753418 26.19262886047363 L 13.75877380371094 20.33578491210938 L 5.255388259887695 26.19262886047363 L 8.193231582641602 16.28879928588867 L 1.9073486328125e-06 10.00469970703125 L 10.3190746307373 9.740642547607422 L 13.75877380371094 0 Z" stroke="none" fill="#707070"></path>
</g>
<g id="Polygon_2-3" data-name="Polygon 2" transform="translate(30.269)" fill="#fff">
<path d="M13.759,0,17.2,9.741,27.518,10l-8.193,6.284,2.938,9.9-8.5-5.857-8.5,5.857,2.938-9.9L0,10l10.319-.264Z" stroke="none"></path>
<path d="M 13.75877380371094 0 L 17.1984748840332 9.740642547607422 L 27.51754570007324 10.00469970703125 L 19.32431793212891 16.28879928588867 L 22.26215934753418 26.19262886047363 L 13.75877380371094 20.33578491210938 L 5.255388259887695 26.19262886047363 L 8.193231582641602 16.28879928588867 L 1.9073486328125e-06 10.00469970703125 L 10.3190746307373 9.740642547607422 L 13.75877380371094 0 Z" stroke="none" fill="#707070"></path>
</g>
<g id="Polygon_2-4" data-name="Polygon 2" transform="translate(60.539)" fill="#fff">
<path d="M13.759,0,17.2,9.741,27.518,10l-8.193,6.284,2.938,9.9-8.5-5.857-8.5,5.857,2.938-9.9L0,10l10.319-.264Z" stroke="none"></path>
<path d="M 13.75877380371094 0 L 17.1984748840332 9.740642547607422 L 27.51754570007324 10.00469970703125 L 19.32431793212891 16.28879928588867 L 22.26215934753418 26.19262886047363 L 13.75877380371094 20.33578491210938 L 5.255388259887695 26.19262886047363 L 8.193231582641602 16.28879928588867 L 1.9073486328125e-06 10.00469970703125 L 10.3190746307373 9.740642547607422 L 13.75877380371094 0 Z" stroke="none" fill="#707070"></path>
</g>
<g id="Polygon_2-5" data-name="Polygon 2" transform="translate(90.808)" fill="#fff">
<path d="M13.759,0,17.2,9.741,27.518,10l-8.193,6.284,2.938,9.9-8.5-5.857-8.5,5.857,2.938-9.9L0,10l10.319-.264Z" stroke="none"></path>
<path d="M 13.75877380371094 0 L 17.1984748840332 9.740642547607422 L 27.51754570007324 10.00469970703125 L 19.32431793212891 16.28879928588867 L 22.26215934753418 26.19262886047363 L 13.75877380371094 20.33578491210938 L 5.255388259887695 26.19262886047363 L 8.193231582641602 16.28879928588867 L 1.9073486328125e-06 10.00469970703125 L 10.3190746307373 9.740642547607422 L 13.75877380371094 0 Z" stroke="none" fill="#707070"></path>
</g>
<g id="Polygon_2-6" data-name="Polygon 2" transform="translate(121.077)" fill="#fff">
<path d="M13.759,0,17.2,9.741,27.518,10l-8.193,6.284,2.938,9.9-8.5-5.857-8.5,5.857,2.938-9.9L0,10l10.319-.264Z" stroke="none"></path>
<path d="M 13.75877380371094 0 L 17.1984748840332 9.740642547607422 L 27.51754570007324 10.00469970703125 L 19.32431793212891 16.28879928588867 L 22.26215934753418 26.19262886047363 L 13.75877380371094 20.33578491210938 L 5.255388259887695 26.19262886047363 L 8.193231582641602 16.28879928588867 L 1.9073486328125e-06 10.00469970703125 L 10.3190746307373 9.740642547607422 L 13.75877380371094 0 Z" stroke="none" fill="#707070"></path>
</g>
</g>
<g id="Group_169" data-name="Group 169">
<path id="Polygon_2-7" data-name="Polygon 2" d="M13.759,0,17.2,9.741,27.518,10l-8.193,6.284,2.938,9.9-8.5-5.857-8.5,5.857,2.938-9.9L0,10l10.319-.264Z" fill="#ffd800"></path>
<path id="Polygon_2-8" data-name="Polygon 2" d="M13.759,0,17.2,9.741,27.518,10l-8.193,6.284,2.938,9.9-8.5-5.857-8.5,5.857,2.938-9.9L0,10l10.319-.264Z" transform="translate(30.269)" fill="#ffd800"></path>
<path id="Polygon_2-9" data-name="Polygon 2" d="M13.759,0,17.2,9.741,27.518,10l-8.193,6.284,2.938,9.9-8.5-5.857-8.5,5.857,2.938-9.9L0,10l10.319-.264Z" transform="translate(60.539)" fill="#ffd800"></path>
<path id="Polygon_2-10" data-name="Polygon 2" d="M13.759,0,17.2,9.741,27.518,10l-8.193,6.284,2.938,9.9-8.5-5.857-8.5,5.857,2.938-9.9L0,10l10.319-.264Z" transform="translate(90.808)" fill="#ffd800"></path>
<g id="Mask_Group_1" data-name="Mask Group 1" transform="translate(121.077)" clip-path="url(#clip-path)">
<rect id="Rectangle_1464" data-name="Rectangle 1464" width="24" height="31" transform="translate(-1.577 -1.941)" fill="#ffd800"></rect>
</g>
</g>
</g>
<g id="Google__G__Logo">
<path id="Path_274" data-name="Path 274" d="M292.159,227.344a24.56,24.56,0,0,0-.361-4.244H272.1v8.042h11.28a9.667,9.667,0,0,1-4.175,6.346v5.218h6.73C289.888,239.069,292.159,233.7,292.159,227.344Z" transform="translate(-251.216 -205.978)" fill="#4285f4"></path>
<path id="Path_275" data-name="Path 275" d="M47.563,341.182a19.992,19.992,0,0,0,13.843-5.042l-6.73-5.218A12.667,12.667,0,0,1,35.845,324.3H28.9v5.379A20.887,20.887,0,0,0,47.563,341.182Z" transform="translate(-26.678 -299.413)" fill="#34a853"></path>
<path id="Path_276" data-name="Path 276" d="M9.109,163.375a12.509,12.509,0,0,1,0-8V150H2.172a20.9,20.9,0,0,0,0,18.755Z" transform="translate(0.05 -138.488)" fill="#fbbc04"></path>
<path id="Path_277" data-name="Path 277" d="M47.563,8.248a11.349,11.349,0,0,1,8.011,3.131l5.963-5.963A20.072,20.072,0,0,0,47.563-.017,20.88,20.88,0,0,0,28.9,11.494l6.937,5.379A12.492,12.492,0,0,1,47.563,8.248Z" transform="translate(-26.678 0.018)" fill="#ea4335"></path>
</g>
</svg>